<svg width="329" height="327" viewBox="0 0 329 327" fill="none" xmlns="http://www.w3.org/2000/svg">
<path d="M135.249 57.7507C124.88 53.983 114.027 51.5441 103.174 49.6524C92.3364 47.7608 81.374 46.5882 70.3961 46.088C64.1966 45.8066 57.9971 45.7284 51.7819 45.8691C51.1417 45.8847 51.1417 46.8853 51.7819 46.8696C62.7287 46.6977 73.6598 47.2449 84.5284 48.4799C95.4283 49.7306 106.25 51.6379 116.916 54.2175C122.944 55.6714 128.94 57.2973 134.937 58.892C135.67 59.0952 135.952 58.0008 135.249 57.7507Z" fill="white"/>
<path d="M122.35 131.527C122.35 131.527 105.579 141.282 110.357 164.092C115.136 186.901 131.47 169.688 134.047 164.092C136.639 158.51 129.784 132.965 122.35 131.527Z" fill="#313156"/>
<path d="M113.98 218.606C114.339 222.608 115.464 226.908 118.649 229.346C121.038 231.16 124.24 231.613 127.191 231.16C130.143 230.691 132.907 229.393 135.53 227.955C139.2 225.938 142.729 223.593 145.587 220.529C148.444 217.465 150.584 213.619 151.068 209.46C151.411 206.553 150.958 203.582 150.24 200.737C149.506 197.766 148.382 194.702 146.024 192.764C143.463 190.669 139.918 190.278 136.623 190.544C129.893 191.075 123.396 194.046 118.571 198.767C113.418 203.864 113.371 211.759 113.98 218.606Z" fill="#313156"/>
<path d="M161.14 51.2319C161.14 51.2319 150.178 69.4608 149.459 74.8231C148.741 80.1855 144.79 94.8656 138.638 102.026C138.638 102.026 135.593 123.819 136.998 129.119C138.403 134.419 155.909 150.412 155.909 150.412C155.909 150.412 176.131 132.574 178.567 127.509C181.019 122.443 176.6 111.812 178.567 104.293C180.535 96.7729 185.61 60.3932 185.61 60.3932L190.529 61.4563C190.529 61.4563 192.559 97.9298 193.496 104.293C194.433 110.64 196.822 129.103 193.496 133.121C190.17 137.123 161 173.878 161 173.878C161 173.878 161.452 187.824 168.823 194.468C168.823 194.468 140.309 220.873 118.524 216.902C118.524 216.902 108.265 118.285 121.975 94.7249C135.686 71.1649 155.253 47.7612 155.253 47.7612C155.253 47.7612 156.752 47.4954 161.14 51.2319Z" fill="#7C3F15"/>
<path d="M183.362 118.097C183.424 119.801 183.518 121.536 183.174 123.209C182.893 124.601 182.3 125.945 182.284 127.368C182.237 130.494 185.017 133.105 188.046 133.84C189.624 134.231 191.248 134.215 192.856 133.981C193.153 133.621 193.387 133.34 193.559 133.137C196.885 129.134 194.496 110.671 193.559 104.308C192.622 97.9607 190.592 61.4716 190.592 61.4716L188.218 60.9557C184.221 79.7005 182.596 98.9456 183.362 118.097Z" fill="#EF7C2E"/>
<path d="M123.162 100.181C125.754 101.338 128.815 99.7746 131.595 100.322C129.705 110.749 129.674 121.505 131.501 131.949C131.626 132.668 131.735 133.512 131.267 134.059C130.283 135.216 128.44 133.887 126.941 134.091C124.896 134.388 124.536 137.17 124.724 139.218C125.473 147.067 126.629 154.883 128.159 162.622C131.548 159.104 134 154.633 135.561 149.974C137.466 144.268 138.185 138.249 138.638 132.23C138.638 132.215 138.638 132.199 138.653 132.168C137.81 130.964 137.217 129.901 136.998 129.088C135.592 123.788 138.638 101.995 138.638 101.995C144.775 94.8343 148.725 80.1543 149.459 74.7919C150.178 69.4295 161.14 51.2006 161.14 51.2006C156.736 47.4642 155.268 47.73 155.268 47.73C155.268 47.73 135.717 71.1649 122.007 94.7249C121.523 95.5535 121.07 96.4759 120.648 97.4764C121.148 98.6646 121.944 99.6339 123.162 100.181Z" fill="#EF7C2E"/>
<path d="M128.472 184.65C123.881 186.963 119.742 190.387 116.682 194.514C117.291 203.238 117.915 210.148 118.259 213.869C119.196 213.259 120.039 212.478 120.851 211.696C126.894 205.99 133.422 200.44 141.339 197.907C146.867 196.14 152.754 195.968 158.501 195.155C160.703 194.843 162.936 194.421 164.825 193.279C165.466 192.904 166.043 192.42 166.559 191.872C164.279 188.73 162.936 184.853 162.155 181.507C161 181.163 159.797 180.96 158.595 180.788C148.413 179.35 137.654 180.022 128.472 184.65Z" fill="#313156"/>
<path d="M154.238 205.724C154.238 205.724 197.9 164.529 207.348 162.575C216.78 160.605 220.262 162.106 224.01 164.451C227.758 166.796 285.583 221.092 285.583 221.092L280.024 227.064C280.024 227.064 265.408 216.168 258.896 215.167C252.384 214.166 231.256 212.541 227.414 196.532L215.999 191.935L181.004 225.22C181.004 225.204 148.288 230.41 154.238 205.724Z" fill="#D56214"/>
<path d="M285.583 221.076C285.583 221.076 278.587 214.51 269.296 205.834C266.36 208.241 264.502 212.025 264.002 215.855C263.955 216.199 263.924 216.558 263.908 216.918C270.936 220.279 280.04 227.049 280.04 227.049L285.583 221.076Z" fill="#D56214"/>
<path d="M275.464 212.759C274.855 211.493 275.105 209.929 275.792 208.694C276.479 207.459 277.525 206.474 278.572 205.521C278.837 205.271 279.196 205.005 279.54 205.13C279.712 205.192 279.837 205.364 279.946 205.521C281.133 207.193 282.226 208.944 283.21 210.742C283.303 210.914 283.397 211.086 283.397 211.274C283.397 211.461 283.303 211.649 283.21 211.821C281.523 214.776 277.525 216.996 275.464 212.759Z" fill="#8F9DAA"/>
<path d="M275.84 222.468C275.84 222.468 279.65 229.69 283.523 231.989C287.395 234.287 293.329 231.66 295.438 230.285C297.546 228.924 295.516 222.28 296.656 218.043C297.796 213.807 304.417 200.049 301.106 189.731C301.106 189.731 298.654 188.496 296.702 192.154C294.75 195.812 281.539 207.788 279.681 213.791C279.666 213.791 275.59 220.263 275.84 222.468Z" fill="#22303D"/>
<path d="M296.686 192.154C296.483 192.529 296.171 192.982 295.765 193.498C294.625 196.656 294.109 200.127 293.032 203.332C291.861 206.818 289.987 210.086 289.346 213.713C289.081 215.214 289.034 216.746 288.659 218.215C288.206 220.029 287.269 221.686 286.504 223.406C285.255 226.235 284.505 229.284 284.256 232.364C288.113 233.958 293.438 231.566 295.405 230.285C297.513 228.924 295.483 222.28 296.623 218.043C297.763 213.807 304.384 200.049 301.074 189.731C301.09 189.731 298.638 188.496 296.686 192.154Z" fill="#8F9DAA"/>
<path d="M293.158 196.078C292.486 197.11 292.143 198.454 291.706 199.611C291.221 200.893 290.737 202.191 290.253 203.473C289.301 206.006 288.364 208.538 287.427 211.071C286.271 214.166 284.991 217.262 283.944 220.42C283.07 219.92 281.961 219.966 281.102 220.545C279.994 221.28 279.556 222.483 279.197 223.703C278.245 222.483 277.308 221.248 276.355 220.045C276.215 219.857 275.949 220.107 276.043 220.295C277.667 223.281 279.853 225.954 282.102 228.487C282.117 228.502 282.117 228.502 282.133 228.518C282.071 229.644 282.117 230.754 282.289 231.895C282.336 232.176 282.804 232.114 282.789 231.832C282.555 227.424 284.007 223.187 285.522 219.107C287.302 214.338 289.066 209.554 290.847 204.802C291.362 203.426 291.877 202.05 292.393 200.674C292.658 199.971 292.924 199.252 293.205 198.548C293.47 197.845 293.814 197.141 293.923 196.391C294.001 195.922 293.423 195.672 293.158 196.078ZM282.711 224.703C282.492 225.61 282.336 226.517 282.227 227.424C281.274 226.329 280.384 225.204 279.494 224.078C279.494 224.078 279.51 224.062 279.51 224.047C280.306 222.483 281.665 220.232 283.632 221.373C283.289 222.483 282.976 223.578 282.711 224.703Z" fill="#8F9DAA"/>
<path d="M293.844 227.846C293.313 227.643 292.735 227.752 292.188 227.799C291.532 227.846 290.892 227.908 290.236 227.955C288.971 228.033 287.722 228.018 286.457 227.94C285.661 227.893 285.692 229.097 286.473 229.159C287.816 229.284 289.159 229.331 290.517 229.268C291.611 229.222 293.172 229.253 294.047 228.534C294.312 228.299 294.093 227.94 293.844 227.846Z" fill="#22303D"/>
<path d="M293.922 224.5C293.25 224.109 292.298 224.328 291.548 224.375C290.627 224.422 289.705 224.469 288.784 224.516C288.253 224.547 288.269 225.344 288.8 225.344C289.721 225.344 290.642 225.344 291.579 225.344C292.329 225.344 293.313 225.516 293.969 225.094C294.156 224.938 294.156 224.625 293.922 224.5Z" fill="#22303D"/>
<path d="M293.766 221.842C293.173 221.514 292.376 221.514 291.705 221.436C290.893 221.342 290.096 221.295 289.284 221.28C288.8 221.264 288.816 222.014 289.284 222.03C290.065 222.061 290.83 222.124 291.611 222.218C292.251 222.296 292.97 222.546 293.61 222.468C293.922 222.437 294.094 222.014 293.766 221.842Z" fill="#22303D"/>
<path d="M294.921 218.247C294.375 217.793 293.61 217.95 292.938 217.918C292.064 217.872 291.189 217.872 290.33 217.731C289.799 217.653 289.581 218.466 290.127 218.559C290.939 218.684 291.751 218.872 292.563 218.966C293.25 219.044 294.265 219.341 294.859 218.903C295.046 218.763 295.14 218.434 294.921 218.247Z" fill="#22303D"/>
<path d="M295.687 214.979C295.062 214.698 294.328 214.698 293.657 214.682C292.86 214.667 292.048 214.651 291.252 214.651C290.69 214.651 290.705 215.511 291.267 215.526C292.033 215.558 292.782 215.589 293.532 215.636C294.219 215.683 294.953 215.792 295.624 215.589C295.874 215.526 295.952 215.12 295.687 214.979Z" fill="#22303D"/>
<path d="M297.248 211.477C296.451 211.18 295.405 211.337 294.578 211.352C293.641 211.368 292.688 211.415 291.751 211.446C291.22 211.462 291.251 212.196 291.767 212.259C292.704 212.368 293.656 212.447 294.593 212.478C295.421 212.509 296.483 212.65 297.263 212.322C297.669 212.15 297.669 211.634 297.248 211.477Z" fill="#22303D"/>
<path d="M298.154 207.334C296.608 207.116 295.015 207.538 293.469 207.366C293.047 207.319 292.954 208.054 293.375 208.116C294.906 208.351 296.655 208.82 298.169 208.226C298.544 208.085 298.669 207.413 298.154 207.334Z" fill="#22303D"/>
<path d="M299.622 204.02C298.279 203.457 296.608 203.488 295.187 203.598C294.64 203.645 294.64 204.458 295.203 204.442C295.952 204.426 296.686 204.458 297.436 204.567C298.107 204.661 298.747 204.849 299.419 204.895C299.856 204.942 300.043 204.208 299.622 204.02Z" fill="#22303D"/>
<path d="M300.028 200.299C298.872 199.564 297.248 199.736 295.968 199.971C295.53 200.049 295.655 200.706 296.077 200.721C296.733 200.753 297.389 200.815 298.044 200.893C298.653 200.971 299.231 201.112 299.84 201.05C300.246 201.018 300.371 200.518 300.028 200.299Z" fill="#22303D"/>
<path d="M301.105 196.735C300.418 196.391 299.559 196.547 298.825 196.625C298.013 196.719 297.217 196.938 296.421 197.11C295.952 197.204 296.155 197.892 296.608 197.813C297.389 197.673 298.17 197.657 298.95 197.641C299.606 197.626 300.387 197.767 300.996 197.501C301.324 197.376 301.464 196.922 301.105 196.735Z" fill="#22303D"/>
<path d="M299.934 193.17C299.075 193.029 298.091 193.248 297.42 193.827C297.186 194.03 297.404 194.39 297.67 194.405C298.357 194.437 299.106 194.39 299.794 194.296C300.09 194.265 300.325 194.093 300.356 193.78C300.403 193.53 300.215 193.217 299.934 193.17Z" fill="#22303D"/>
<path d="M205.021 196.688C199.665 193.264 195.339 188.074 193.481 181.992C192.497 178.756 192.247 175.27 192.762 171.924C176.584 184.635 154.238 205.724 154.238 205.724C148.288 230.41 181.004 225.204 181.004 225.204L208.816 198.752C208.035 198.533 207.238 198.298 206.458 198.08C205.396 197.767 205.161 197.783 205.021 196.688Z" fill="#8E2E24"/>
<path d="M183.658 235.147C183.658 235.147 188.89 227.346 188.999 218.122C189.108 208.898 193.856 197.939 178.38 187.886C178.38 187.886 157.689 218.106 183.658 235.147Z" fill="#8E2E24"/>
<path d="M244.826 173.55C217.685 168.078 118.743 213.885 118.743 213.885C116.853 224.047 113.902 251.641 137.123 251.609C160.344 251.578 224.041 199.143 224.041 199.143C224.416 207.069 229.054 218.356 232.38 224.735C234.363 228.55 236.377 237.273 237.689 243.699C238.595 248.123 243.92 249.936 247.34 246.982C247.683 246.685 248.011 246.388 248.324 246.106C249.62 244.934 250.338 243.23 250.26 241.479C249.838 232.005 248.605 199.971 250.572 186.917C252.868 171.533 244.826 173.55 244.826 173.55Z" fill="#EF7C2E"/>
<path d="M223.369 190.669C223.338 190.919 223.307 191.185 223.463 191.388C223.619 191.575 223.916 191.591 224.166 191.591C229.741 191.56 235.097 189.183 239.61 185.9C243.42 183.118 246.715 179.694 249.901 176.207C248.136 172.737 244.826 173.565 244.826 173.565C240.656 172.721 234.769 173.096 227.82 174.331C226.789 176.098 226.133 178.13 225.587 180.116C224.65 183.571 223.9 187.104 223.369 190.669Z" fill="#FFA364"/>
<path d="M234.16 187.058C231.459 185.713 228.148 186.307 225.509 187.761C222.87 189.215 220.73 191.404 218.529 193.452C208.425 202.785 196.135 209.273 183.752 215.339C184.299 219.404 185.251 223.375 186.735 227.158C206.661 213.479 224.057 199.174 224.057 199.174C224.431 207.1 229.069 218.387 232.396 224.766C234.379 228.581 236.393 237.304 237.705 243.73C238.579 248.029 243.623 249.858 247.043 247.263C236.721 229.143 232.13 207.803 234.16 187.058Z" fill="#7C3F15"/>
<path d="M246.59 222.999C243.576 223.531 240.672 224.594 238.017 226.126C240.219 233.474 243.233 240.587 247.028 247.247C247.137 247.169 247.231 247.091 247.34 246.997C247.683 246.7 248.011 246.403 248.324 246.121C249.62 244.949 250.338 243.245 250.26 241.494C250.104 237.82 249.807 230.769 249.635 222.733C248.589 222.733 247.574 222.827 246.59 222.999Z" fill="#EF7C2E"/>
<path d="M234.035 228.94C235.441 233.255 236.752 239.087 237.689 243.714C237.721 243.855 237.752 243.98 237.783 244.121C237.799 244.168 237.814 244.214 237.83 244.246C237.861 244.34 237.877 244.418 237.908 244.496C237.924 244.543 237.939 244.59 237.97 244.652C238.002 244.73 238.033 244.793 238.048 244.871C238.064 244.918 238.095 244.981 238.127 245.027C238.158 245.09 238.189 245.168 238.22 245.231C238.251 245.278 238.283 245.34 238.298 245.387C238.33 245.45 238.361 245.512 238.408 245.575C238.439 245.622 238.47 245.668 238.501 245.715C238.533 245.778 238.579 245.825 238.611 245.887C238.642 245.934 238.673 245.981 238.72 246.028C238.767 246.075 238.798 246.137 238.845 246.184C238.876 246.231 238.923 246.278 238.954 246.325C239.001 246.372 239.032 246.419 239.079 246.481C239.126 246.528 239.157 246.575 239.204 246.606C239.251 246.653 239.298 246.7 239.345 246.747C239.391 246.794 239.438 246.825 239.469 246.872C239.516 246.919 239.563 246.95 239.61 246.997C239.657 247.044 239.704 247.075 239.751 247.107C239.797 247.138 239.844 247.185 239.891 247.216C239.938 247.247 239.985 247.294 240.047 247.326C240.094 247.357 240.141 247.404 240.203 247.435C240.25 247.466 240.313 247.498 240.36 247.529C240.406 247.56 240.469 247.591 240.516 247.623C240.563 247.654 240.625 247.685 240.688 247.716C240.734 247.748 240.797 247.779 240.844 247.795C240.906 247.826 240.953 247.857 241.015 247.873C241.062 247.904 241.125 247.92 241.172 247.951C241.234 247.982 241.297 247.998 241.343 248.029C241.39 248.045 241.453 248.076 241.5 248.092C241.562 248.107 241.624 248.139 241.687 248.154C241.734 248.17 241.796 248.185 241.843 248.201C241.906 248.217 241.968 248.232 242.031 248.248C242.077 248.264 242.14 248.279 242.187 248.279C242.249 248.295 242.312 248.311 242.39 248.326C242.437 248.342 242.499 248.342 242.546 248.357C242.608 248.373 242.686 248.373 242.749 248.389C242.796 248.389 242.858 248.404 242.905 248.404C242.967 248.404 243.046 248.42 243.108 248.42C243.155 248.42 243.217 248.42 243.264 248.42C243.342 248.42 243.405 248.42 243.483 248.42C243.53 248.42 243.592 248.42 243.639 248.42C243.717 248.42 243.779 248.42 243.858 248.404C243.904 248.404 243.951 248.404 244.014 248.389C244.092 248.389 244.154 248.373 244.232 248.373C244.279 248.373 244.326 248.357 244.373 248.357C244.451 248.342 244.529 248.342 244.592 248.326C244.638 248.311 244.685 248.311 244.732 248.295C244.81 248.279 244.888 248.264 244.951 248.248C244.998 248.232 245.044 248.217 245.091 248.217C245.169 248.201 245.247 248.17 245.325 248.154C245.372 248.139 245.404 248.123 245.45 248.107C245.528 248.076 245.607 248.045 245.685 248.013C245.716 247.998 245.763 247.982 245.794 247.967C245.872 247.935 245.95 247.904 246.028 247.857C246.059 247.842 246.091 247.826 246.137 247.81C246.216 247.763 246.294 247.732 246.387 247.685C246.419 247.67 246.45 247.654 246.481 247.638C246.559 247.591 246.653 247.544 246.731 247.482C246.746 247.466 246.778 247.451 246.793 247.435C246.887 247.372 246.981 247.31 247.059 247.247C243.264 240.587 240.25 233.474 238.048 226.126C236.612 226.939 235.269 227.893 234.035 228.94Z" fill="#7C3F15"/>
<path d="M183.44 199.955C183.83 195.202 184.626 190.309 186.75 186.088C153.02 198.032 118.759 213.9 118.759 213.9C116.869 224.062 113.918 251.655 137.139 251.624C148.226 251.609 168.542 239.649 186.75 227.157C183.377 218.653 182.69 209.116 183.44 199.955Z" fill="#1F363C"/>
<path d="M178.38 187.886C178.38 187.886 166.059 220.42 183.658 235.147C183.658 235.147 143.713 261.365 127.519 251.625C111.341 241.869 118.743 213.901 118.743 213.901L178.38 187.886Z" fill="#4162FF"/>
<path d="M129.799 231.754C145.54 232.771 160.625 226.423 174.96 219.576C174.367 216.574 174.148 213.479 174.195 210.477C165.528 214.573 156.69 218.325 147.711 221.718C141.355 224.125 134.281 226.345 127.925 223.922C125.911 223.156 123.975 221.811 123.1 219.842C122.585 218.685 122.475 217.387 122.507 216.136C122.553 214.729 122.772 213.338 123.131 211.978L118.759 213.885C118.759 213.885 116.979 220.608 117.072 228.612C117.228 228.69 117.385 228.768 117.541 228.847C121.335 230.629 125.583 231.489 129.799 231.754Z" fill="white"/>
<path d="M168.105 186.666C165.747 183.18 163.67 179.522 161.89 175.707C161.421 174.691 160.953 173.643 160.781 172.533C160.609 171.408 160.734 170.267 160.843 169.125C161.125 165.858 161.14 162.575 160.89 159.323C160.578 155.321 159.344 150.678 155.597 149.239C155.55 151.85 154.722 154.586 154.691 157.197C154.66 159.323 154.425 161.809 152.614 162.919C151.599 163.544 150.318 163.544 149.132 163.497C147.554 163.435 145.899 163.341 144.509 162.559C142.307 161.34 141.261 158.682 141.183 156.165C141.105 153.648 141.823 151.193 142.339 148.739C143.479 143.252 141.808 137.623 140.199 132.105C139.949 131.26 138.731 131.401 138.669 132.261C138.2 138.28 137.498 144.299 135.593 150.005C133.203 157.134 128.69 163.872 122.007 167.312C120.445 168.125 118.727 168.75 116.963 168.688C115.198 168.625 113.387 167.765 112.575 166.202C111.591 164.326 112.184 161.918 111.154 160.058C108.655 155.477 111.794 150.255 112.715 145.112C113.137 142.72 113.652 140.234 115.183 138.358C115.229 137.467 115.276 136.498 115.323 135.591C109.998 142.188 108.764 151.193 109.061 159.667C109.155 162.168 109.358 164.717 110.248 167.062C111.513 170.36 114.105 173.315 114.09 176.848C114.043 184.775 111.872 191.231 111.013 199.111C110.154 206.99 110.295 215.26 113.73 222.405C113.73 222.421 113.746 222.421 113.746 222.436C114.277 223.499 115.854 223.249 116.088 222.092C116.651 219.247 115.058 207.913 127.55 197.907C133.547 193.107 163.732 192.889 165.747 190.309C167.074 189.871 168.636 189.731 168.605 188.136C168.573 187.573 168.386 187.088 168.105 186.666Z" fill="#4162FF"/>
<path d="M153.223 185.494C148.601 185.525 143.885 185.729 139.606 187.48C136.545 188.73 133.812 190.716 130.658 191.654C127.504 192.592 123.537 192.154 121.71 189.403C120.539 187.636 120.523 185.369 120.664 183.259C120.851 180.366 121.257 177.49 121.851 174.644C122.038 173.722 122.272 172.784 122.803 172.002C123.475 171.002 124.568 170.376 125.583 169.704C131.938 165.546 136.358 158.823 138.638 151.569C140.418 145.91 140.964 139.953 140.746 134.012C140.558 133.371 140.371 132.73 140.184 132.089C139.934 131.245 138.716 131.386 138.653 132.246C138.185 138.265 137.482 144.284 135.577 149.99C133.188 157.119 128.675 163.857 121.991 167.297C120.43 168.109 118.712 168.735 116.947 168.672C115.183 168.61 113.371 167.75 112.559 166.187C111.575 164.31 112.169 161.903 111.138 160.042C108.64 155.462 111.778 150.24 112.7 145.097C113.121 142.705 113.637 140.219 115.167 138.343C115.214 137.452 115.261 136.483 115.308 135.576C109.983 142.173 108.749 151.178 109.046 159.652C109.139 162.153 109.342 164.701 110.232 167.046C111.497 170.345 114.09 173.3 114.074 176.833C114.027 184.759 111.856 191.216 110.998 199.095C110.139 206.975 110.279 215.245 113.715 222.39C113.715 222.405 113.73 222.405 113.73 222.421C114.261 223.484 115.838 223.234 116.073 222.077C116.635 219.232 115.042 207.897 127.535 197.892C133.531 193.092 163.717 192.873 165.731 190.294C166.09 190.169 166.465 190.075 166.824 189.965C166.34 189.575 165.887 189.09 165.435 188.683C162.265 185.729 157.533 185.463 153.223 185.494Z" fill="#000093"/>
<path d="M138.638 151.569C137.17 156.243 134.812 160.683 131.626 164.373C136.139 168.719 141.386 172.299 147.101 174.879C148.101 175.332 149.163 175.754 150.24 175.567C151.146 175.41 151.911 174.832 152.629 174.253C155.581 171.893 158.392 169.329 161 166.577C161.109 164.154 161.062 161.731 160.875 159.308C160.562 155.305 159.329 150.662 155.581 149.224C155.534 151.835 154.706 154.571 154.675 157.181C154.644 159.308 154.41 161.793 152.598 162.903C151.583 163.529 150.303 163.529 149.116 163.482C147.539 163.419 145.883 163.325 144.494 162.544C142.292 161.324 141.245 158.667 141.167 156.15C141.089 153.633 141.808 151.178 142.323 148.724C143.463 143.236 141.792 137.608 140.184 132.089C140.371 132.73 140.558 133.371 140.746 134.012C140.949 139.953 140.418 145.925 138.638 151.569Z" fill="#4162FF"/>
<path d="M131.626 164.373C134.812 160.683 137.17 156.244 138.638 151.569C140.418 145.91 140.965 139.953 140.746 134.012C140.559 133.371 140.371 132.73 140.184 132.089C139.934 131.245 138.716 131.386 138.653 132.246C138.185 138.265 137.482 144.284 135.577 149.99C134.156 154.242 131.985 158.338 129.034 161.7C129.862 162.622 130.736 163.513 131.626 164.373Z" fill="#425A70"/>
<path d="M231.162 185.369C229.928 186.01 229.101 187.12 228.257 188.199C227.414 189.293 226.649 190.45 225.977 191.654C225.306 192.858 224.728 194.124 224.229 195.406C223.979 196.063 223.682 196.813 223.495 197.579C223.292 197.063 223.089 196.547 222.932 196.016C222.573 194.718 222.37 193.405 222.136 192.076C221.995 191.326 220.84 191.529 220.84 192.248C220.84 193.655 221.137 195.047 221.558 196.391C221.949 197.579 222.386 199.08 223.354 199.924C223.573 200.112 223.994 200.049 224.057 199.752C224.104 199.721 224.166 199.658 224.197 199.596C224.853 198.564 225.15 197.22 225.603 196.094C226.102 194.843 226.696 193.624 227.367 192.467C228.023 191.326 228.757 190.231 229.538 189.184C230.319 188.136 231.271 187.245 231.88 186.088C232.13 185.619 231.63 185.119 231.162 185.369Z" fill="#FFA364"/>
<path d="M180.176 231.551C180.113 231.598 180.051 231.629 179.988 231.676C180.051 231.629 180.113 231.582 180.176 231.551C177.412 228.018 175.803 223.875 174.96 219.575C160.625 226.423 145.54 232.77 129.799 231.754C125.598 231.488 121.335 230.628 117.54 228.846C117.384 228.768 117.228 228.69 117.072 228.612C117.166 236.929 119.289 246.637 127.535 251.609C143.713 261.364 183.674 235.131 183.674 235.131C182.331 234.036 181.175 232.833 180.176 231.551Z" fill="#4162FF"/>
<path d="M243.342 235.71C243.499 233.912 244.795 232.38 246.356 231.473C247.918 230.566 249.714 230.191 251.463 229.816C251.916 229.722 252.478 229.659 252.759 230.019C252.915 230.207 252.931 230.472 252.962 230.707C253.18 233.318 253.227 235.944 253.118 238.555C253.102 238.79 253.087 239.04 252.977 239.259C252.852 239.477 252.634 239.602 252.415 239.728C248.652 241.885 242.811 241.697 243.342 235.71Z" fill="#8F9DAA"/>
<path d="M237.393 246.575C237.393 246.575 236.846 256.972 239.579 262.021C242.312 267.071 250.526 268.072 253.727 267.962C256.928 267.853 259.036 259.254 263.065 255.361C267.078 251.469 283.303 240.744 286.427 227.299C286.427 227.299 284.537 224.344 280.024 227.064C275.511 229.785 253.227 234.24 247.246 239.603C247.246 239.587 238.564 243.996 237.393 246.575Z" fill="#22303D"/>
<path d="M280.024 227.064C279.571 227.346 278.931 227.627 278.15 227.94C274.84 230.644 272.013 234.115 268.734 236.914C265.173 239.962 260.988 242.307 257.928 245.856C256.663 247.326 255.601 248.967 254.227 250.343C252.54 252.031 250.432 253.235 248.48 254.627C245.263 256.909 242.452 259.739 240.172 262.959C243.342 267.227 250.729 268.087 253.727 267.993C256.928 267.884 259.036 259.285 263.065 255.393C267.094 251.5 283.303 240.775 286.427 227.33C286.427 227.299 284.537 224.344 280.024 227.064Z" fill="#8F9DAA"/>
<path d="M273.591 229.05C272.17 229.738 270.937 230.988 269.703 231.973C268.329 233.068 266.954 234.146 265.596 235.241C262.91 237.383 260.224 239.54 257.538 241.697C254.259 244.34 250.823 246.888 247.622 249.655C246.982 248.529 245.748 247.873 244.421 247.92C242.719 247.998 241.469 249.03 240.283 250.124C240.048 248.17 239.814 246.216 239.549 244.261C239.502 243.964 239.064 244.058 239.049 244.324C238.861 248.654 239.517 253.016 240.314 257.269C240.314 257.284 240.329 257.3 240.329 257.331C239.533 258.519 238.846 259.77 238.284 261.13C238.143 261.474 238.705 261.693 238.861 261.38C241.501 256.393 245.857 252.719 250.167 249.249C255.227 245.184 260.286 241.119 265.346 237.086C266.814 235.913 268.282 234.756 269.734 233.584C270.484 232.989 271.249 232.38 272.014 231.786C272.764 231.192 273.591 230.644 274.2 229.894C274.622 229.425 274.153 228.784 273.591 229.05ZM243.468 253.517C242.641 254.376 241.86 255.252 241.157 256.19C240.829 254.376 240.579 252.563 240.345 250.734C240.361 250.734 240.361 250.718 240.376 250.718C242.281 249.53 245.233 247.967 246.638 250.499C245.561 251.469 244.483 252.469 243.468 253.517Z" fill="#8F9DAA"/>
<path d="M253.602 264.257C253.165 263.679 252.446 263.428 251.822 263.131C251.072 262.772 250.323 262.397 249.589 262.021C248.168 261.271 246.794 260.442 245.466 259.52C244.639 258.942 243.873 260.286 244.685 260.864C246.075 261.881 247.527 262.819 249.027 263.632C250.245 264.288 251.947 265.367 253.368 265.132C253.805 265.054 253.821 264.523 253.602 264.257Z" fill="#22303D"/>
<path d="M255.866 260.646C255.382 259.77 254.195 259.395 253.352 258.942C252.306 258.379 251.275 257.832 250.229 257.269C249.636 256.956 249.12 257.832 249.698 258.175C250.713 258.785 251.728 259.379 252.727 259.989C253.555 260.474 254.508 261.318 255.491 261.271C255.835 261.271 256.038 260.927 255.866 260.646Z" fill="#22303D"/>
<path d="M257.444 257.628C257.006 256.878 256.132 256.346 255.445 255.83C254.617 255.205 253.758 254.627 252.884 254.079C252.353 253.751 251.884 254.564 252.4 254.908C253.227 255.455 254.039 256.018 254.82 256.643C255.46 257.159 256.085 257.894 256.85 258.222C257.225 258.394 257.678 258.035 257.444 257.628Z" fill="#22303D"/>
<path d="M261.035 254.455C260.738 253.61 259.802 253.282 259.083 252.797C258.162 252.172 257.209 251.594 256.35 250.89C255.819 250.452 255.054 251.203 255.585 251.656C256.397 252.328 257.147 253.063 257.974 253.704C258.662 254.236 259.599 255.221 260.52 255.142C260.848 255.096 261.16 254.799 261.035 254.455Z" fill="#22303D"/>
<path d="M264.002 251.39C263.502 250.671 262.706 250.202 261.972 249.733C261.113 249.186 260.239 248.654 259.364 248.139C258.739 247.763 258.208 248.717 258.802 249.108C259.614 249.639 260.41 250.171 261.207 250.718C261.925 251.218 262.659 251.828 263.518 252.031C263.861 252.094 264.221 251.703 264.002 251.39Z" fill="#22303D"/>
<path d="M268.015 248.561C267.344 247.716 266.095 247.216 265.173 246.685C264.127 246.091 263.065 245.512 262.019 244.934C261.425 244.605 260.988 245.434 261.503 245.825C262.472 246.56 263.44 247.263 264.455 247.92C265.345 248.498 266.407 249.342 267.484 249.499C268.031 249.577 268.374 249.014 268.015 248.561Z" fill="#22303D"/>
<path d="M271.701 244.637C270.155 243.386 268.14 242.808 266.547 241.604C266.11 241.275 265.532 242.026 265.954 242.37C267.484 243.636 269.077 245.278 271.123 245.622C271.638 245.715 272.216 245.043 271.701 244.637Z" fill="#22303D"/>
<path d="M275.48 241.963C274.387 240.462 272.544 239.399 270.904 238.586C270.28 238.274 269.749 239.165 270.358 239.524C271.185 239.993 271.982 240.525 272.716 241.119C273.372 241.666 273.965 242.276 274.668 242.776C275.136 243.12 275.823 242.432 275.48 241.963Z" fill="#22303D"/>
<path d="M278.353 238.148C277.572 236.601 275.683 235.725 274.137 235.131C273.606 234.928 273.309 235.741 273.762 236.022C274.465 236.476 275.136 236.992 275.792 237.507C276.401 237.992 276.948 238.524 277.651 238.852C278.119 239.087 278.603 238.633 278.353 238.148Z" fill="#22303D"/>
<path d="M281.867 234.975C281.351 234.146 280.305 233.756 279.446 233.365C278.494 232.927 277.494 232.661 276.51 232.317C275.933 232.13 275.714 233.005 276.26 233.208C277.213 233.568 278.056 234.068 278.946 234.553C279.68 234.959 280.43 235.632 281.273 235.741C281.695 235.819 282.132 235.413 281.867 234.975Z" fill="#22303D"/>
<path d="M282.913 230.301C282.054 229.566 280.852 229.175 279.727 229.378C279.337 229.456 279.337 229.988 279.618 230.175C280.352 230.66 281.211 231.098 282.007 231.457C282.351 231.614 282.71 231.582 282.96 231.27C283.178 231.004 283.194 230.535 282.913 230.301Z" fill="#22303D"/>
<path d="M176.069 124.398C176.194 124.163 176.303 123.866 176.163 123.632C176.022 123.397 175.694 123.381 175.413 123.381C172.993 123.381 170.572 122.944 168.292 122.084C168.761 121.615 169.245 121.13 169.713 120.661C169.885 120.489 170.088 120.27 170.088 120.02C170.104 119.536 169.51 119.301 169.042 119.238C164.513 118.551 159.766 119.364 155.722 121.537C155.878 120.505 156.018 119.489 156.174 118.457C153.692 119.489 151.708 121.662 150.881 124.226C150.553 125.273 150.397 126.367 149.991 127.384C149.522 128.541 148.726 129.572 148.32 130.761C148.039 131.605 147.914 132.511 148.054 133.324C149.741 130.307 151.427 131.699 153.504 133.246V136.592C153.504 136.592 156.471 135.044 156.659 133.496C156.846 131.933 156.752 129.651 156.752 129.651L160.188 128.916L161.703 126.336C161.703 126.336 162.53 135.498 167.231 135.935C167.231 135.935 167.152 136.623 166.965 137.686C170.51 136.123 173.461 133.262 175.101 129.744C175.257 129.4 175.382 128.931 175.07 128.712C174.945 128.619 174.789 128.603 174.632 128.587C173.602 128.494 172.571 128.415 171.525 128.322C173.477 127.634 175.117 126.211 176.069 124.398Z" fill="#7C3F15"/>
<path d="M176.069 124.398C176.147 124.257 176.21 124.1 176.225 123.944C174.32 124.867 172.15 125.179 170.026 125.148C167.574 125.101 165.138 124.616 162.733 124.163C161.718 123.975 160.656 123.788 159.657 124.069C160.516 123.288 161.297 122.396 161.937 121.427C160.25 121.755 158.736 122.787 157.642 124.116C156.549 125.445 155.862 127.071 155.456 128.759C153.738 129.119 151.896 128.931 150.287 128.197C150.1 128.118 149.928 128.025 149.756 127.931C149.288 128.869 148.679 129.744 148.335 130.745C148.054 131.589 147.929 132.496 148.07 133.309C149.756 130.291 151.443 131.683 153.52 133.231V136.576C153.52 136.576 156.487 135.028 156.674 133.481C156.862 131.917 156.768 129.635 156.768 129.635L160.203 128.9L161.718 126.32C161.718 126.32 162.546 135.482 167.246 135.92C167.246 135.92 167.168 136.607 166.981 137.671C170.526 136.107 173.477 133.246 175.117 129.729C175.273 129.385 175.398 128.916 175.085 128.697C174.96 128.603 174.804 128.587 174.648 128.572C173.617 128.478 172.587 128.4 171.541 128.306C173.477 127.634 175.117 126.211 176.069 124.398Z" fill="#7C3F15"/>
<path d="M150.803 137.811C150.381 137.796 149.959 137.78 149.538 137.733C149.132 138.953 145.072 143.205 145.072 143.314C145.634 152.507 152.864 151.413 152.864 151.413L154.363 145.237L154.066 146.457C152.349 143.987 151.537 140.829 150.803 137.811Z" fill="#EF7C2E"/>
<path d="M149.569 137.671C149.569 137.655 149.569 137.639 149.584 137.624C149.569 137.639 149.569 137.655 149.569 137.671Z" fill="#484772"/>
<path d="M149.569 137.514C149.569 137.498 149.553 137.467 149.538 137.452C149.553 137.467 149.569 137.483 149.569 137.514Z" fill="#484772"/>
<path d="M161.718 126.32L160.203 128.9L156.768 129.635C156.768 129.635 156.862 131.917 156.674 133.481C156.487 135.044 153.52 136.576 153.52 136.576V133.231C151.443 131.683 149.756 130.291 148.07 133.309C148.039 133.371 148.007 133.418 147.976 133.481C146.258 136.717 149.007 136.92 149.538 137.467C149.553 137.483 149.569 137.499 149.569 137.53C149.569 137.546 149.569 137.546 149.569 137.561C149.569 137.577 149.569 137.592 149.569 137.608C149.569 137.624 149.569 137.639 149.569 137.655C149.569 137.671 149.569 137.686 149.553 137.702C149.553 137.717 149.538 137.749 149.538 137.764C149.959 137.811 150.381 137.827 150.803 137.843C151.521 140.86 152.349 144.018 154.082 146.504L154.379 145.284C154.379 145.284 158.173 152.507 162.202 148.833C165.122 146.16 166.465 140.563 166.965 137.702C167.152 136.623 167.231 135.951 167.231 135.951C162.546 135.482 161.718 126.32 161.718 126.32Z" fill="#EF7C2E"/>
<path d="M149.694 133.543C149.553 133.449 149.381 133.371 149.225 133.418C149.038 133.465 148.913 133.668 148.866 133.856C148.71 134.387 148.835 134.981 149.132 135.45C149.428 135.919 149.881 136.279 150.381 136.529C151.13 136.904 151.427 135.763 151.271 135.2C151.052 134.528 150.256 133.887 149.694 133.543Z" fill="#7C3F15"/>
<path d="M194.62 62.0654C189.545 62.0654 184.033 61.5182 178.427 60.4395C168.854 58.5947 160.109 55.4055 153.8 51.4501C147.039 47.2134 143.791 42.492 144.618 38.1458C145.446 33.7997 150.24 30.626 158.079 29.2034C165.403 27.8745 174.71 28.1559 184.283 30.0007C193.855 31.8455 202.6 35.0347 208.909 38.9901C215.671 43.2268 218.919 47.9482 218.091 52.2944C217.248 56.6405 212.469 59.8142 204.63 61.2368C201.601 61.7996 198.228 62.0654 194.62 62.0654ZM168.089 31.6735C164.7 31.6735 161.515 31.9236 158.673 32.4395C152.348 33.5808 148.413 35.8946 147.866 38.7712C147.32 41.6478 150.115 45.2592 155.565 48.6673C161.53 52.4038 169.885 55.4367 179.067 57.219C188.249 58.9856 197.119 59.267 204.052 58.0163C210.377 56.875 214.312 54.5612 214.859 51.6846C215.405 48.808 212.61 45.1966 207.16 41.7885C201.195 38.052 192.84 35.0191 183.658 33.2369C178.255 32.1894 172.946 31.6735 168.089 31.6735Z" fill="#EC5B44"/>
<path d="M185.766 54.0302C187.281 52.5137 189.936 52.3418 191.638 53.6394C192.169 54.0458 192.622 54.5774 193.012 55.1246C193.684 56.0313 194.277 57.0163 194.543 58.1262C194.714 58.8141 194.699 59.6584 194.168 60.1274C193.434 60.7683 192.325 60.3306 191.357 60.2837C190.56 60.2524 189.795 60.5182 189.046 60.784C187.172 61.4406 185.314 61.6126 184.829 59.4551C184.423 57.5322 184.267 55.5311 185.766 54.0302Z" fill="#EF7C2E"/>
<path d="M157.642 43.462C160.109 42.8992 162.889 44.3844 163.779 46.7607C164.06 47.5111 164.17 48.3084 164.232 49.1214C164.341 50.4502 164.31 51.826 163.888 53.0923C163.623 53.8896 163.092 54.7339 162.264 54.8589C161.14 55.0465 160.297 53.9053 159.36 53.2487C158.579 52.7171 157.642 52.4982 156.721 52.295C154.425 51.7791 152.458 50.7785 153.332 48.3084C154.097 46.1353 155.19 44.0248 157.642 43.462Z" fill="#EF7C2E"/>
<path d="M230.49 83.0622C228.413 81.5613 226.383 80.0605 224.853 77.9812C223.213 75.7612 222.073 73.2442 221.277 70.6021C219.543 64.8645 219.262 58.8143 217.576 53.0767C217.67 52.8422 217.654 52.5764 217.435 52.3419C217.404 52.3107 217.357 52.2638 217.326 52.2325C216.858 50.7629 216.311 49.3246 215.608 47.9489C214.89 46.5575 214.078 45.0097 212.829 44.0248C212.641 43.8841 212.266 44.0092 212.376 44.2906C212.907 45.6351 213.719 46.8545 214.265 48.199C214.562 48.9338 214.843 49.6842 215.093 50.4503C211.454 48.1834 206.879 47.8394 202.46 48.0896C199.524 45.6038 196.448 43.2744 193.559 40.7417C192.294 39.6317 191.107 38.4748 189.983 37.271C190.763 37.2085 191.544 37.146 192.325 37.1147C194.136 37.0365 195.948 37.1772 197.744 37.0365C198.321 36.9896 198.54 36.0829 197.884 35.9422C194.995 35.3481 191.763 35.6451 188.827 35.9891C187.656 34.6759 186.547 33.3001 185.485 31.8618C185.251 31.5647 184.829 31.8149 184.986 32.1588C185.595 33.5971 186.438 34.926 187.39 36.1611C184.517 36.5519 181.675 37.146 178.895 37.9902C178.583 38.084 178.255 38.1934 177.943 38.2872C176.006 35.9109 174.445 33.2688 173.586 30.2828C173.461 29.845 172.821 30.0326 172.914 30.4704C173.602 33.5502 174.96 36.2549 176.756 38.6937C174.086 39.6317 171.509 40.7574 169.01 42.0862C166.387 38.8501 164.201 35.3012 162.733 31.3302C162.592 30.9394 162.015 31.0801 162.093 31.5022C162.936 35.6295 165.309 39.366 167.949 42.6647C165.794 43.8841 163.717 45.2442 161.733 46.7451C161.671 46.792 161.624 46.8389 161.562 46.8858C161.546 46.8701 161.53 46.8545 161.53 46.8389C158.048 42.8054 155.003 37.9433 154.55 32.5028C154.519 32.1588 153.988 32.1432 154.004 32.5028C154.347 38.381 156.924 43.3995 160.5 47.7144C159.454 48.5742 158.439 49.481 157.47 50.419C157.283 50.122 157.111 49.8405 156.924 49.5435C154.113 44.8847 152.223 39.7881 151.005 34.5039C150.927 34.1287 150.303 34.2068 150.334 34.5977C150.849 40.6323 153.098 46.4011 156.315 51.5603C155.643 52.2638 154.972 52.9673 154.332 53.7021C154.191 53.4676 154.05 53.2487 153.926 53.0142C150.693 47.433 148.663 40.9293 148.226 34.4882C148.194 34.1287 147.679 34.1287 147.664 34.4882C147.539 40.2727 148.663 45.8227 151.021 51.1069C153.348 56.2973 156.814 60.9874 161.062 64.7551C168.62 71.4463 178.13 75.3391 186.407 80.9985C190.935 84.094 194.948 87.8305 197.9 92.4893C198.4 93.2866 199.54 92.5987 199.149 91.7545C197.806 88.9248 195.979 86.486 193.824 84.3129C194.293 84.1565 194.73 83.9846 195.151 83.8126C195.401 83.7032 195.651 83.5937 195.901 83.4843C197.228 84.8601 198.493 86.2984 199.774 87.7054C200.133 88.0962 200.851 87.5647 200.523 87.1269C199.446 85.6574 198.321 84.2347 197.15 82.8589C197.681 82.5775 198.197 82.2649 198.696 81.9522C200.055 81.0611 201.351 80.0761 202.616 79.0599C204.74 80.7328 206.832 82.4681 208.847 84.266C209.299 84.6724 209.955 84.0315 209.518 83.5937C207.675 81.6708 205.723 79.8885 203.678 78.2001C204.099 77.8562 204.521 77.5122 204.943 77.1683C205.489 76.7149 206.051 76.2771 206.629 75.8394C208.706 78.0125 210.642 80.295 212.423 82.7026C212.751 83.1403 213.469 82.7651 213.172 82.2649C211.642 79.6384 209.815 77.2308 207.769 75.0108C209.143 74.0415 210.564 73.1817 212.063 72.5251C212.672 73.4474 213.281 74.3855 213.875 75.3391C214.218 75.8707 214.968 75.4017 214.718 74.8545C214.265 73.9008 213.781 72.9784 213.281 72.056C214.453 71.6339 215.655 71.3525 216.92 71.2587C217.716 73.0253 218.482 74.8076 219.294 76.5742C219.481 76.9807 220.168 76.6993 220.028 76.2615C219.45 74.5731 218.856 72.8846 218.216 71.2118C218.56 71.2118 218.919 71.2431 219.278 71.2744C220.09 74.0415 221.23 76.6836 222.963 79.0599C224.697 81.4363 226.992 83.7501 229.959 84.3754C230.771 84.5943 231.162 83.5468 230.49 83.0622ZM217.342 61.6284C217.342 61.6753 217.357 61.7222 217.357 61.7534C217.451 62.4413 217.56 63.1136 217.67 63.8014C216.779 63.6295 215.811 63.6451 214.874 63.7233C214.484 62.9416 214.062 62.1599 213.625 61.3939C214.874 61.3939 216.108 61.4564 217.342 61.6284ZM205.864 49.4341C209.378 49.5748 213 50.3408 215.702 52.6702C216.342 55.1873 216.764 57.7668 217.139 60.3308C215.718 60.0494 214.265 59.9556 212.813 60.0181C211.798 58.3296 210.674 56.6881 209.44 55.1247C207.785 53.0298 205.895 51.1694 203.928 49.4028C204.568 49.3872 205.224 49.4028 205.864 49.4341ZM196.276 66.7249C194.917 67.7568 193.621 68.8668 192.341 70.008C189.936 68.4134 187.5 66.85 185.095 65.271C181.3 62.8009 177.505 60.2995 173.82 57.6418C175.741 56.3754 177.74 55.2811 179.832 54.3431C185.189 58.6267 190.857 62.5195 196.276 66.7249ZM181.191 53.7646C181.519 53.6239 181.847 53.4988 182.175 53.3738C184.97 52.3107 187.843 51.529 190.779 50.9193C193.012 52.467 195.245 54.046 197.338 55.7814C199.711 57.7356 201.929 59.8618 204.021 62.113C203.443 62.3631 202.881 62.6133 202.335 62.8947C200.617 63.7545 198.993 64.7551 197.447 65.8651C196.291 64.974 195.136 64.0985 193.98 63.2386C189.717 60.0963 185.36 57.0477 181.191 53.7646ZM191.247 71.0086C190.779 71.4463 190.311 71.8841 189.842 72.3375C188.968 73.166 188.062 73.9946 187.109 74.745C183.892 72.9472 180.519 71.4151 177.365 69.5077C174.008 67.4597 170.806 65.1459 167.871 62.5664C167.949 62.4882 168.027 62.41 168.105 62.3319C169.401 61.0186 170.791 59.8149 172.29 58.7361C172.384 58.6736 172.477 58.6111 172.571 58.5329C178.599 62.9416 184.986 66.8657 191.247 71.0086ZM192.372 71.7746C193.168 72.3062 193.965 72.8377 194.761 73.3849C195.417 73.8383 196.073 74.2917 196.729 74.7607C196.245 75.3079 195.776 75.855 195.292 76.4022C194.589 77.1995 193.824 78.0281 193.012 78.7785C192.169 78.0594 191.294 77.3715 190.357 76.7462C189.655 76.2615 188.921 75.8238 188.187 75.386C189.655 74.276 191.029 73.0097 192.372 71.7746ZM193.465 70.7741C193.793 70.477 194.136 70.18 194.48 69.883C195.417 69.0856 196.385 68.3196 197.369 67.6004C198.54 68.5228 199.696 69.4765 200.82 70.4458C199.711 71.4776 198.681 72.572 197.681 73.6819C196.291 72.6814 194.886 71.7121 193.465 70.7741ZM198.571 66.7406C200.601 65.3492 202.756 64.1454 205.021 63.223C205.286 63.5357 205.552 63.8327 205.817 64.1454C206.301 64.7082 206.77 65.2866 207.238 65.8651C205.317 66.8344 203.553 68.0694 201.913 69.4608C200.82 68.5385 199.696 67.6317 198.571 66.7406ZM206.567 62.6602C207.113 62.4726 207.675 62.3006 208.238 62.1599C209.502 61.8316 210.783 61.6127 212.063 61.5033C212.532 62.3006 212.969 63.0979 213.391 63.9109C212.032 64.1141 210.705 64.4424 209.424 64.9271C209.175 65.0209 208.925 65.1147 208.675 65.2241C208.003 64.333 207.301 63.4888 206.567 62.6602ZM207.02 54.4056C208.612 56.1878 210.002 58.1108 211.251 60.1432C209.315 60.362 207.394 60.8467 205.552 61.5189C203.865 59.6741 202.069 57.9075 200.227 56.266C197.9 54.2023 195.401 52.3263 192.856 50.5441C193.309 50.4659 193.762 50.3877 194.23 50.3252C196.76 49.9343 199.337 49.606 201.913 49.481C203.709 51.0131 205.442 52.639 207.02 54.4056ZM187.094 37.615C187.515 37.5525 187.953 37.4899 188.374 37.443C189.249 38.4592 190.186 39.4129 191.123 40.3196C193.684 42.7897 196.526 44.9785 199.274 47.2454C199.68 47.5893 200.086 47.9176 200.492 48.2615C199.055 48.3866 197.666 48.5742 196.338 48.7462C194.699 48.9651 193.059 49.2152 191.435 49.5435C191.091 49.309 190.748 49.0589 190.389 48.8244C186.937 46.4637 183.486 44.103 180.504 41.1638C179.942 40.6167 179.395 40.0538 178.88 39.4598C181.566 38.6312 184.314 38.0215 187.094 37.615ZM177.599 39.8662C180.238 43.1024 183.611 45.8383 187 48.2772C187.796 48.8556 188.593 49.4028 189.405 49.9656C186.235 50.6848 183.127 51.6541 180.145 52.9204C177.381 50.7004 174.71 48.3553 172.227 45.7914C171.384 44.9159 170.572 44.0248 169.791 43.1181C172.305 41.8361 174.913 40.7574 177.599 39.8662ZM168.714 43.6809C168.979 44.0092 169.26 44.3218 169.526 44.6345C172.337 47.8863 175.507 50.7942 178.817 53.5145C176.74 54.4838 174.741 55.6094 172.836 56.9226C172.696 56.8132 172.555 56.7194 172.415 56.6099C168.807 53.9209 165.278 51.06 162.233 47.73C164.294 46.2292 166.465 44.8847 168.714 43.6809ZM161.124 48.5586C163.404 51.1694 166.028 53.5145 168.745 55.6563C169.682 56.3911 170.619 57.1102 171.587 57.8137C169.994 59.0019 168.433 60.3464 167.043 61.8316C163.576 58.6892 160.484 55.156 157.923 51.2163C158.954 50.2939 160.031 49.4028 161.124 48.5586ZM154.691 54.39C155.347 53.6864 156.034 52.9829 156.736 52.3263C158.501 55.0466 160.515 57.5949 162.702 59.9087C163.748 61.0186 164.841 62.0817 165.965 63.1136C165.45 63.7545 164.966 64.4268 164.544 65.1147C160.64 62.0974 157.314 58.5329 154.691 54.39ZM177.427 73.1504C173.274 70.8053 169.089 68.4603 165.231 65.615C165.731 65.0052 166.231 64.3955 166.746 63.7858C169.026 65.7869 171.462 67.6004 173.976 69.2732C177.709 71.7434 181.706 73.6663 185.61 75.7925C185.017 76.1677 184.423 76.5117 183.783 76.8087C181.675 75.5267 179.52 74.3229 177.427 73.1504ZM184.736 77.4028C185.423 77.1214 186.063 76.7774 186.703 76.3866C186.766 76.4179 186.828 76.4491 186.891 76.496C188.624 77.4653 190.295 78.544 191.841 79.7791C191.247 80.2481 190.607 80.6546 189.951 80.9985C188.28 79.7009 186.516 78.5284 184.736 77.4028ZM192.918 83.4999C192.247 82.8589 191.529 82.2649 190.81 81.6708C191.497 81.3581 192.153 80.9673 192.778 80.5452C193.121 80.8422 193.465 81.1392 193.793 81.4519C194.214 81.8427 194.621 82.2492 195.027 82.6557C194.339 82.9996 193.621 83.2498 192.918 83.4999ZM198.759 80.3575C197.962 80.936 197.135 81.4832 196.291 81.9835C195.557 81.1705 194.792 80.3888 193.98 79.6384C195.401 78.4502 196.682 77.0432 197.947 75.6362C199.133 76.496 200.305 77.3715 201.46 78.2626C200.586 78.9818 199.696 79.6853 198.759 80.3575ZM205.364 75.0421C204.412 75.7925 203.475 76.5586 202.553 77.3402C201.351 76.3866 200.133 75.4486 198.899 74.5418C199.68 73.6663 200.476 72.8065 201.304 72.0091C201.523 71.8059 201.741 71.6027 201.96 71.3994C203.209 72.5094 204.427 73.6507 205.614 74.8545C205.52 74.917 205.442 74.9795 205.364 75.0421ZM206.754 74.0103C205.567 72.7752 204.318 71.6027 203.037 70.4614C204.615 69.1482 206.317 67.9913 208.159 67.0845C209.221 68.4759 210.252 69.9142 211.236 71.3682C209.659 72.0873 208.144 73.0097 206.754 74.0103ZM212.532 70.8366C211.626 69.3201 210.658 67.8662 209.596 66.4435C210.799 65.9589 212.063 65.5993 213.328 65.3805C213.578 65.3336 213.828 65.3023 214.078 65.2866C214.859 66.8344 215.593 68.4134 216.295 70.008C215.03 70.0862 213.766 70.3832 212.532 70.8366ZM217.685 69.9768C217.045 68.3665 216.358 66.7719 215.608 65.2241C216.373 65.2241 217.123 65.271 217.904 65.271C218.185 66.8969 218.497 68.5385 218.919 70.1331C218.513 70.0549 218.091 70.008 217.685 69.9768Z" fill="white"/>
<path d="M305.025 147.801C303.979 139.89 298.076 133.59 292.282 128.102C274.449 111.249 254.586 96.5378 233.254 84.3904C243.748 93.3485 242.374 94.0364 246.075 100.9C247.34 103.245 244.732 105.793 242.421 104.433C237.315 101.431 230.6 96.9443 224.541 91.9571C226.055 93.2391 227.149 94.8493 228.023 96.6316C229.022 98.664 226.649 100.696 224.806 99.3518C221.87 97.2257 219.294 95.0057 216.936 91.9415C236.065 118.691 257.865 143.533 281.882 165.983C286.286 170.094 294.515 168.156 298.997 164.122C303.495 160.089 305.821 153.788 305.025 147.801Z" fill="#4162FF" fill-opacity="0.11"/>
<path d="M206.818 83.5151C206.396 82.921 205.958 82.3269 205.536 81.7172C205.958 82.3582 206.38 82.9523 206.818 83.5151Z" fill="#4162FF" fill-opacity="0.11" stroke="white" stroke-width="0.232241" stroke-miterlimit="10"/>
<path d="M313.098 135.169C312.286 132.886 310.927 130.917 309.303 129.134C308.882 128.665 308.179 129.369 308.601 129.838C310.147 131.526 311.38 133.449 312.536 135.419C312.708 135.701 313.207 135.513 313.098 135.169Z" fill="#1F363C"/>
<path d="M317.111 131.886C316.221 129.353 314.566 127.383 312.364 125.882C311.833 125.523 311.333 126.383 311.864 126.758C313.816 128.118 315.378 130.057 316.471 132.167C316.658 132.511 317.252 132.277 317.111 131.886Z" fill="#1F363C"/>
<path d="M275.183 175.348C273.481 174.535 271.716 173.769 270.092 172.799C268.405 171.783 266.922 170.501 265.61 169.032C265.345 168.735 264.939 169.157 265.173 169.469C267.578 172.502 270.998 175.348 274.902 176.02C275.276 176.067 275.589 175.535 275.183 175.348Z" fill="#1F363C"/>
<path d="M276.416 180.976C274.495 180.304 272.59 179.647 270.67 179.006C270.045 178.787 269.764 179.803 270.389 180.006C272.309 180.647 274.23 181.273 276.166 181.883C276.744 182.07 276.978 181.163 276.416 180.976Z" fill="#1F363C"/>
<path d="M53.0626 75.1512L188.374 39.3969L185.048 0.0312674L46.8319 0L53.0626 75.1512Z" fill="#EF7C2E"/>
<path d="M86.106 50.7627C86.9805 48.6834 87.8081 46.4947 89.4009 44.9157C90.619 43.6962 92.2118 42.9302 93.7578 42.1798C102.268 38.0837 110.779 33.9721 119.29 29.876C119.711 23.9665 119.852 18.0413 119.711 12.1318C110.982 12.1005 102.237 12.5695 93.5548 13.4919C91.3061 13.7264 88.9637 14.0391 87.1054 15.3211C85.7156 16.2591 84.7162 17.6505 83.748 19.0106C76.2367 29.5165 68.7099 40.0223 61.1986 50.5282C56.2953 57.3757 51.1576 65.8492 54.2652 73.6817C55.9829 73.4628 58.0286 73.3846 60.1836 73.2596L75.4247 69.2261C80.1876 64.7548 83.6543 56.6409 86.106 50.7627Z" fill="#EF7C2E"/>
<path d="M46.8319 0L53.0626 75.6202L58.0441 73.838L51.9227 0.0156337L46.8319 0Z" fill="black"/>
<path d="M188.374 39.3969L185.048 0.0312587L179.348 0.015625L182.268 34.613L52.5472 68.8821L53.0626 75.1512L188.374 39.3969Z" fill="black"/>
<path d="M182.222 34.0347L182.268 34.6131L52.5472 68.8822L53.0626 75.1513L188.374 39.397L188.28 38.3183L182.222 34.0347Z" fill="black"/>
<path d="M120.648 0.0152588V18.8851L88.8855 24.0599L-0.00012207 143.329L-0.00012207 67.5841L67.523 0.0152588L120.648 0.0152588Z" fill="#B44100"/>
<path d="M120.648 0.0152588L88.8074 0.0152588L-0.00012207 107.012L-0.00012207 143.329L88.8855 24.0755L120.648 18.9008V0.0152588Z" fill="#B44100"/>
<path d="M299.285 141.463C301.404 142.249 303.287 143.27 304.857 144.684C305.249 144.998 305.563 145.312 305.956 145.627C308.074 147.669 309.644 150.262 310.664 153.011C310.821 153.561 311.056 154.111 311.135 154.74C311.919 158.197 311.841 161.81 310.507 165.424C309.879 167.231 309.016 168.802 307.917 170.216C307.368 171.002 306.74 171.709 306.112 172.338C303.68 174.773 300.541 176.501 297.245 177.287C295.676 177.68 293.949 177.837 292.301 177.758C290.418 177.68 288.535 177.365 286.652 176.658C284.14 175.794 281.943 174.38 280.138 172.652C279.746 172.259 279.354 171.945 279.04 171.552C278.098 170.452 277.235 169.274 276.529 168.017C276.058 167.152 275.665 166.21 275.352 165.267C274.881 163.853 274.567 162.439 274.41 160.946C274.331 159.846 274.253 158.668 274.41 157.489C274.567 155.918 274.881 154.268 275.43 152.697C278.334 144.684 286.181 139.813 294.263 140.363C294.969 140.442 295.597 140.52 296.225 140.599C297.245 140.835 298.265 141.07 299.285 141.463Z" fill="#E33D6F"/>
<path d="M277.863 148.062C282.728 144.449 289.241 143.192 295.362 145.391C305.092 148.848 310.114 159.611 306.583 169.274C305.955 171.002 305.171 172.495 304.151 173.909C306.975 171.788 309.251 168.881 310.507 165.267C313.959 155.526 308.937 144.841 299.285 141.385C291.281 138.557 282.571 141.542 277.863 148.062Z" fill="#C72153"/>
<path d="M287.829 158.355C293.714 153.955 301.718 151.127 309.566 150.499C309.801 150.891 309.958 151.363 310.193 151.834C302.425 152.384 294.499 155.134 288.692 159.533C286.338 161.262 284.847 163.618 284.769 165.818C284.769 165.975 284.769 166.132 284.769 166.289C285.867 166.604 286.966 166.761 288.143 166.918C295.912 167.704 304.7 165.19 311.606 160.476C311.527 161.104 311.527 161.654 311.37 162.283C304.387 166.761 295.755 169.118 287.986 168.332C286.966 168.253 286.024 168.096 285.083 167.861C285.396 168.725 286.024 169.589 286.887 170.296C290.732 173.517 297.01 175.167 302.346 175.324C301.562 175.795 300.698 176.188 299.835 176.581C294.891 176.11 289.555 174.46 285.946 171.396C284.612 170.296 283.827 168.961 283.513 167.468C282.493 167.154 281.473 166.761 280.531 166.289C280.688 167.389 281.08 168.489 281.551 169.589C283.121 172.967 286.103 175.874 289.712 177.681C288.064 177.367 286.495 176.895 285.004 176.188C283.042 174.46 281.394 172.417 280.374 170.218C279.668 168.646 279.276 167.154 279.119 165.582C278.491 165.19 277.863 164.718 277.314 164.247C277 165.19 276.529 166.054 275.901 166.761C275.666 166.289 275.509 165.818 275.352 165.268C275.744 164.64 276.058 163.933 276.215 163.226C275.666 162.676 275.117 162.047 274.646 161.34C274.567 161.262 274.489 161.183 274.489 161.104C274.41 160.083 274.41 159.14 274.41 158.119C274.724 158.983 275.195 159.769 275.744 160.555C275.901 160.79 276.137 161.104 276.372 161.34C276.294 160.162 276.058 158.983 275.823 157.805C275.744 157.255 275.587 156.626 275.509 156.077C275.352 155.291 275.274 154.584 275.195 153.798C275.509 152.698 275.98 151.677 276.529 150.656C276.451 152.384 276.529 154.191 276.843 155.841C276.921 156.391 277.078 156.941 277.157 157.491C277.471 159.219 277.863 160.947 277.706 162.676C278.177 163.068 278.648 163.461 279.197 163.854C279.276 162.126 279.668 160.476 280.453 158.826C282.258 154.898 285.396 151.049 288.771 148.456C292.223 145.785 296.853 143.742 301.64 142.643C302.268 142.957 302.817 143.271 303.366 143.664C298.344 144.685 293.244 146.806 289.634 149.556C286.417 151.991 283.513 155.684 281.787 159.376C281.002 161.104 280.61 162.911 280.61 164.64C281.551 165.19 282.571 165.661 283.592 165.975V165.897C283.513 163.147 285.161 160.397 287.829 158.355Z" fill="#261C27"/>
<path fill-rule="evenodd" clip-rule="evenodd" d="M315.103 243.701C308.627 244.651 303.3 245.456 303.264 245.492C303.175 245.581 303.698 249.25 303.817 249.374C303.871 249.429 308.299 248.835 313.659 248.054C319.018 247.273 323.454 246.633 323.516 246.631C323.579 246.63 323.63 246.883 323.63 247.192C323.63 247.744 323.625 247.748 323.394 247.419C323.163 247.088 322.648 246.981 322.339 247.198C322.253 247.259 321.59 248.034 320.866 248.919C319.434 250.671 319.271 251.123 319.918 251.547C320.45 251.895 320.699 251.709 322.264 249.793C323.432 248.363 323.631 248.179 323.692 248.475C323.731 248.665 324.04 252.793 324.379 257.649C324.718 262.505 325.023 266.504 325.056 266.538C325.13 266.612 328.911 266.326 328.998 266.24C329.032 266.205 328.671 260.743 328.196 254.101C327.466 243.91 327.296 242.021 327.104 242C326.98 241.986 321.579 242.752 315.103 243.701ZM89.9507 245.341C89.7634 245.478 89.6108 245.75 89.6108 245.947C89.6108 246.536 89.9932 246.781 90.9146 246.781C91.3706 246.781 92.3828 246.859 93.164 246.955C94.2983 247.095 94.6313 247.091 94.8169 246.937C95.0997 246.702 95.1229 245.972 94.8546 245.749C94.551 245.497 93.4519 245.296 91.8014 245.19C90.5352 245.109 90.2357 245.134 89.9507 245.341ZM84.6252 246.255C82.677 246.896 82.0569 247.253 82.0569 247.737C82.0569 248.221 82.5587 248.653 82.9959 248.546C83.7386 248.362 86.9775 247.199 87.1558 247.051C87.4181 246.834 87.3919 246.245 87.1073 245.96C86.7705 245.624 86.4188 245.665 84.6252 246.255ZM97.4147 247.057C97.1524 247.347 97.0923 247.802 97.2802 248.074C97.3413 248.162 97.7992 248.48 98.2978 248.781C98.7963 249.082 99.5667 249.639 100.01 250.019C100.849 250.737 101.068 250.813 101.556 250.552C101.892 250.372 101.95 249.685 101.659 249.322C101.073 248.589 98.3885 246.781 97.8873 246.781C97.7649 246.781 97.5522 246.905 97.4147 247.057ZM78.1918 249.52C75.8395 251.163 75.1973 251.985 75.7979 252.586C76.2048 252.993 76.5929 252.855 77.7956 251.877C78.4359 251.356 79.2149 250.772 79.5267 250.58C80.1514 250.195 80.36 249.697 80.1005 249.212C79.8337 248.713 79.1999 248.816 78.1918 249.52ZM102.963 252.452C102.762 252.76 102.746 252.902 102.885 253.17C104.493 256.26 104.956 256.98 105.37 257.027C105.901 257.088 106.229 256.826 106.229 256.343C106.229 255.908 104.847 253.15 104.307 252.509C103.841 251.955 103.304 251.932 102.963 252.452ZM316.265 254.297C315.578 255.024 314.839 255.872 314.621 256.183C314.243 256.722 314.236 256.764 314.474 257.127C314.644 257.387 314.86 257.507 315.156 257.507C315.516 257.507 315.835 257.232 317.04 255.883C318.607 254.13 318.803 253.662 318.157 253.21C317.973 253.081 317.752 252.975 317.667 252.975C317.582 252.975 316.951 253.57 316.265 254.297ZM73.0817 254.589C72.5215 255.193 71.1794 257.893 71.1794 258.415C71.1794 258.908 71.5864 259.218 72.1284 259.141C72.3751 259.105 72.6282 258.75 73.1403 257.718C73.5159 256.961 74.0238 256.054 74.2692 255.702C74.6878 255.1 74.7014 255.036 74.491 254.66C74.1699 254.085 73.5765 254.055 73.0817 254.589ZM310.615 260.331C309.318 261.608 308.975 262.033 308.975 262.362C308.975 262.751 309.43 263.248 309.787 263.248C309.864 263.248 310.665 262.521 311.566 261.633C312.862 260.355 313.205 259.93 313.205 259.602C313.205 259.213 312.75 258.716 312.394 258.716C312.317 258.716 311.516 259.443 310.615 260.331ZM106.151 259.42C105.874 259.697 105.882 259.831 106.3 261.964C106.767 264.339 106.804 264.443 107.24 264.553C107.83 264.701 108.111 264.442 108.165 263.699C108.223 262.912 107.651 259.983 107.347 259.509C107.088 259.105 106.509 259.062 106.151 259.42ZM70.6112 261.385C70.2419 261.533 70.1137 262.051 69.9664 263.987C69.7996 266.178 69.8904 266.659 70.5003 266.812C71.2347 266.996 71.4244 266.614 71.5391 264.718C71.5956 263.785 71.6812 262.774 71.7294 262.471C71.8556 261.68 71.2764 261.117 70.6112 261.385ZM305.225 265.536C303.464 267.189 303.234 267.447 303.234 267.778C303.234 268.166 303.637 268.536 304.06 268.536C304.452 268.536 307.551 265.803 307.703 265.324C307.752 265.171 307.682 264.879 307.549 264.676C307.117 264.017 306.666 264.184 305.225 265.536ZM107.104 267.138C106.977 267.284 106.831 267.811 106.779 268.309C106.727 268.808 106.603 269.806 106.505 270.527C106.36 271.587 106.363 271.883 106.523 272.075C106.769 272.372 107.492 272.384 107.732 272.096C107.932 271.855 108.261 270.07 108.397 268.493C108.473 267.604 108.446 267.428 108.188 267.171C107.82 266.803 107.406 266.791 107.104 267.138ZM70.4213 269.37C70.183 269.657 70.2986 270.91 70.7346 272.767C71.0816 274.246 71.3904 274.672 72.0018 274.519C72.5043 274.393 72.6231 273.876 72.3987 272.794C72.3008 272.321 72.124 271.4 72.0062 270.747C71.8882 270.093 71.7136 269.464 71.6181 269.349C71.3865 269.07 70.6595 269.083 70.4213 269.37ZM299.158 270.971C298.287 271.72 297.524 272.412 297.461 272.511C297.141 273.013 297.548 273.672 298.177 273.672C298.415 273.672 299.104 273.182 300.206 272.23C301.576 271.045 301.875 270.713 301.875 270.371C301.875 270.143 301.793 269.874 301.693 269.775C301.276 269.357 300.744 269.608 299.158 270.971ZM105.51 274.692C105.345 274.838 105.095 275.262 104.954 275.636C104.813 276.01 104.43 276.814 104.104 277.423C103.287 278.946 103.339 279.564 104.285 279.564C104.799 279.564 105.113 279.143 106 277.263C106.881 275.398 106.938 275.136 106.545 274.743C106.16 274.358 105.902 274.346 105.51 274.692ZM293.188 275.882C292.274 276.595 291.476 277.256 291.415 277.352C291.19 277.702 291.306 278.202 291.667 278.439C292.133 278.744 292.254 278.682 294.286 277.099C295.236 276.358 295.873 275.75 295.928 275.53C296.038 275.093 295.624 274.577 295.166 274.582C294.992 274.583 294.102 275.168 293.188 275.882ZM72.3359 276.97C72.1984 277.122 72.0858 277.346 72.0858 277.468C72.0858 277.702 73.2958 280.966 73.5792 281.496C73.8175 281.941 74.2971 282.052 74.7371 281.764C75.2109 281.454 75.2027 281.197 74.6786 279.925C74.4428 279.353 74.1281 278.511 73.9793 278.054C73.8306 277.597 73.6051 277.104 73.4783 276.958C73.179 276.615 72.6521 276.621 72.3359 276.97ZM288.65 279.427C287.966 279.704 285.028 282.069 284.984 282.378C284.924 282.795 285.327 283.19 285.81 283.19C286.308 283.19 289.606 280.817 289.726 280.372C289.906 279.705 289.293 279.167 288.65 279.427ZM39.3357 280.706C39.151 280.835 38.9999 281.08 38.9999 281.249C38.9999 281.555 40.2895 283.651 41.147 284.739C41.7995 285.567 42.7768 285.488 42.7768 284.608C42.7768 284.267 40.6812 281.006 40.2402 280.66C39.9248 280.412 39.742 280.421 39.3357 280.706ZM101.678 281.415C101.553 281.519 101.152 281.978 100.787 282.435C100.423 282.892 99.8324 283.586 99.4754 283.977C98.7283 284.796 98.6374 285.326 99.1825 285.683C99.6658 285.999 100.012 285.84 100.822 284.928C102.23 283.342 102.906 282.413 102.906 282.062C102.906 281.378 102.183 280.997 101.678 281.415ZM75.5592 283.993C75.3523 284.096 75.1613 284.33 75.135 284.513C75.1077 284.704 75.5212 285.69 76.1007 286.816C76.8788 288.327 77.1969 288.806 77.4702 288.874C77.9494 288.995 78.2504 288.859 78.4429 288.437C78.5805 288.135 78.4587 287.813 77.5728 286.143C76.4376 284.003 76.1525 283.698 75.5592 283.993ZM280.384 285.166C278.789 286.247 278.609 286.415 278.609 286.816C278.609 287.125 278.724 287.338 278.984 287.508C279.34 287.741 279.393 287.734 280.004 287.372C281.183 286.672 283.192 285.233 283.348 284.977C283.455 284.802 283.448 284.605 283.325 284.335C283.006 283.635 282.383 283.812 280.384 285.166ZM44.1876 286.826C43.8158 286.964 43.6194 287.434 43.7549 287.861C43.8053 288.02 44.5255 288.802 45.3551 289.598C46.5214 290.718 46.9586 291.046 47.2827 291.046C47.7982 291.046 48.0645 290.799 48.0645 290.32C48.0645 290.058 47.6228 289.523 46.4843 288.405C45.6151 287.551 44.8164 286.82 44.7091 286.779C44.602 286.738 44.3672 286.759 44.1876 286.826ZM94.8409 288.429C93.4193 289.613 93.0856 289.967 93.0856 290.288C93.0856 291.155 93.8839 291.291 94.8206 290.582C96.2931 289.469 97.6179 288.15 97.6179 287.798C97.6179 287.374 97.2512 286.967 96.8696 286.967C96.7193 286.967 95.8063 287.625 94.8409 288.429ZM274.001 289.313C273.004 289.936 272.126 290.581 272.051 290.747C271.832 291.23 272.172 291.802 272.678 291.802C273.219 291.802 276.746 289.629 276.877 289.215C277.007 288.804 276.567 288.175 276.15 288.179C275.965 288.18 274.998 288.691 274.001 289.313ZM79.0271 291.062C78.7822 291.519 78.8659 291.71 80.1695 293.667C81.4292 295.559 81.8092 295.85 82.3651 295.347C82.528 295.199 82.6612 294.942 82.6612 294.776C82.6612 294.609 82.1048 293.634 81.4247 292.609C80.2608 290.854 80.1589 290.744 79.6926 290.744C79.3437 290.744 79.1469 290.838 79.0271 291.062ZM88.6557 292.709C87.6734 293.28 86.7727 293.827 86.6539 293.926C86.3098 294.211 86.3945 294.788 86.8221 295.068C87.2767 295.366 87.3239 295.349 89.4924 294.128C91.1749 293.18 91.4237 292.97 91.4237 292.494C91.4237 292.114 90.9909 291.645 90.6564 291.661C90.5384 291.667 89.638 292.139 88.6557 292.709ZM49.7566 292.134C49.6569 292.234 49.5753 292.505 49.5753 292.737C49.5753 293.214 50.0148 293.581 52.0891 294.835C53.3963 295.626 53.7919 295.722 54.1724 295.341C54.5923 294.921 54.4654 294.41 53.8432 294.014C53.5317 293.816 52.6795 293.271 51.9496 292.803C50.6232 291.953 50.0977 291.793 49.7566 292.134ZM267.36 293.294C265.287 294.483 265.001 294.78 265.375 295.351C265.536 295.597 265.763 295.73 266.023 295.73C266.535 295.73 269.784 293.85 270.097 293.372C270.313 293.042 270.312 292.977 270.087 292.633C269.944 292.415 269.696 292.255 269.503 292.256C269.318 292.257 268.353 292.724 267.36 293.294ZM82.4346 295.67C81.9361 295.872 81.0604 296.188 80.4887 296.373C79.2723 296.765 78.9827 297.133 79.3951 297.763C79.7349 298.281 80.0701 298.256 82.0532 297.557C84.1219 296.828 84.4742 296.61 84.4742 296.059C84.4742 295.19 83.8933 295.079 82.4346 295.67ZM56.5551 295.911C56.2502 296.216 56.3386 296.908 56.7137 297.154C57.3153 297.548 60.7455 298.624 61.0712 298.52C61.2398 298.467 61.4515 298.261 61.5415 298.063C61.8352 297.419 61.4572 297.141 59.2893 296.406C57.1615 295.684 56.8399 295.626 56.5551 295.911ZM260.706 296.961C258.449 298.192 258.364 298.253 258.364 298.656C258.364 299.059 258.794 299.507 259.181 299.507C259.515 299.507 262.855 297.735 263.233 297.357C263.681 296.909 263.25 296.012 262.603 296.043C262.474 296.05 261.62 296.463 260.706 296.961ZM83.5979 297.271C83.201 297.668 83.4107 298.226 84.4118 299.436C85.9623 301.311 86.2965 301.622 86.7647 301.622C87.1806 301.622 87.4957 301.276 87.4957 300.82C87.4957 300.7 86.844 299.812 86.0475 298.846C84.8485 297.392 84.5287 297.089 84.1892 297.089C83.9637 297.089 83.6976 297.171 83.5979 297.271ZM74.0498 297.799C72.0952 298.059 71.7237 298.224 71.6616 298.859C71.5954 299.535 72.0005 299.717 73.2759 299.585C75.281 299.376 76.684 299.072 76.8801 298.804C77.3243 298.197 76.912 297.528 76.1164 297.565C75.8522 297.577 74.9223 297.682 74.0498 297.799ZM64.0139 298.082C63.5575 298.539 63.8489 299.189 64.6075 299.406C65.3599 299.622 68.6129 299.818 68.8988 299.665C69.3166 299.442 69.4335 298.952 69.1666 298.544C68.9626 298.233 68.7534 298.184 66.9256 298.023C64.3649 297.796 64.2987 297.797 64.0139 298.082ZM253.486 300.652C252.423 301.19 251.515 301.731 251.468 301.853C251.303 302.282 251.557 302.822 251.971 302.926C252.512 303.062 256.325 301.19 256.476 300.715C256.613 300.283 256.182 299.656 255.755 299.666C255.57 299.67 254.548 300.114 253.486 300.652ZM88.8554 303.132C88.6892 303.299 88.5533 303.555 88.5533 303.702C88.5533 303.936 89.8661 305.315 91.3761 306.667C92.1353 307.347 93.0856 307.139 93.0856 306.293C93.0856 305.987 89.7122 302.83 89.3851 302.83C89.26 302.83 89.0216 302.966 88.8554 303.132ZM246.731 303.83C245.693 304.292 244.721 304.779 244.571 304.913C244.197 305.248 244.299 305.867 244.773 306.132C245.132 306.332 245.292 306.284 247.266 305.378C249.277 304.455 249.377 304.388 249.421 303.937C249.456 303.583 249.381 303.403 249.123 303.222C248.934 303.09 248.743 302.983 248.699 302.986C248.656 302.988 247.77 303.368 246.731 303.83ZM240.537 306.521C240.08 306.716 239.174 307.096 238.523 307.365C237.264 307.886 236.977 308.218 237.257 308.833C237.341 309.018 237.532 309.208 237.68 309.255C237.976 309.349 241.656 307.921 242.086 307.546C242.429 307.247 242.423 306.72 242.074 306.404C241.716 306.08 241.538 306.094 240.537 306.521ZM94.6628 308.337C94.5263 308.546 94.4613 308.837 94.5142 309.003C94.6515 309.436 98.0199 311.744 98.5147 311.744C99.0276 311.744 99.2798 311.49 99.2798 310.973C99.2798 310.623 99.0191 310.383 97.4291 309.269C96.4111 308.556 95.427 307.972 95.2419 307.97C95.0493 307.968 94.8018 308.125 94.6628 308.337ZM233.285 309.414C232.745 309.62 231.841 309.964 231.277 310.178C230.654 310.414 230.157 310.709 230.013 310.929C229.797 311.259 229.798 311.324 230.023 311.668C230.167 311.888 230.415 312.046 230.614 312.046C230.942 312.046 234.098 310.909 234.774 310.547C235.218 310.309 235.212 309.574 234.762 309.26C234.354 308.973 234.472 308.961 233.285 309.414ZM224.763 312.481C223.69 312.865 222.745 313.288 222.663 313.42C222.426 313.804 222.665 314.446 223.083 314.551C223.505 314.657 227.154 313.509 227.582 313.136C228.11 312.676 227.706 311.717 227.004 311.763C226.844 311.774 225.836 312.097 224.763 312.481ZM101.236 312.507C100.943 312.8 100.938 313.283 101.223 313.582C101.489 313.861 104.988 315.671 105.262 315.672C105.436 315.672 105.703 315.534 105.856 315.365C106.387 314.778 106.039 314.388 103.963 313.249C102.924 312.679 101.956 312.209 101.81 312.205C101.665 312.2 101.406 312.337 101.236 312.507ZM217.491 314.819C216.408 315.163 215.439 315.5 215.338 315.567C215.02 315.781 215.122 316.549 215.502 316.798C215.819 317.006 216.012 316.975 217.881 316.41C220.037 315.759 220.444 315.532 220.444 314.977C220.444 314.642 219.931 314.145 219.617 314.176C219.532 314.185 218.575 314.474 217.491 314.819ZM108.279 315.872C107.986 316.087 107.908 316.807 108.151 317.05C108.321 317.22 110.621 318.224 111.772 318.631C112.534 318.901 112.564 318.901 112.867 318.626C113.248 318.281 113.27 317.76 112.914 317.459C112.658 317.242 108.939 315.672 108.681 315.672C108.611 315.672 108.43 315.762 108.279 315.872ZM209.808 317.011C207.672 317.613 207.373 317.844 207.726 318.619C207.948 319.105 208.327 319.104 210.171 318.612C210.96 318.401 211.864 318.16 212.179 318.076C212.9 317.883 213.172 317.33 212.815 316.785C212.507 316.314 212.193 316.338 209.808 317.011ZM202.312 318.898C201.272 319.159 200.337 319.428 200.235 319.495C199.914 319.706 200.013 320.476 200.392 320.725C200.737 320.95 201.264 320.862 204.85 319.979C205.344 319.857 205.561 319.206 205.261 318.749C204.96 318.289 204.676 318.303 202.312 318.898ZM115.475 318.724C115.17 319.029 115.258 319.721 115.634 319.96C116.141 320.281 119.298 321.262 119.827 321.262C120.17 321.262 120.33 321.166 120.457 320.885C120.801 320.131 120.512 319.905 118.305 319.199C116.132 318.503 115.759 318.44 115.475 318.724ZM194.771 320.505C192.722 320.93 192.343 321.12 192.343 321.72C192.343 321.858 192.483 322.096 192.653 322.25C192.954 322.523 193.016 322.519 195.155 322.102C196.361 321.867 197.445 321.577 197.565 321.458C197.888 321.135 197.829 320.556 197.446 320.288C197.043 320.006 197.257 319.989 194.771 320.505ZM123.013 320.946C122.624 321.335 122.609 321.74 122.973 322.069C123.124 322.206 124.209 322.536 125.383 322.802C127.467 323.274 127.524 323.279 127.826 323.006C128.236 322.635 128.222 322.078 127.796 321.811C127.609 321.693 126.674 321.418 125.718 321.199C124.763 320.981 123.834 320.763 123.655 320.715C123.44 320.659 123.221 320.737 123.013 320.946ZM186.923 321.918C185.374 322.188 185.015 322.301 184.833 322.575C184.572 322.969 184.691 323.465 185.1 323.683C185.381 323.834 186.974 323.649 189.112 323.218C190.015 323.036 190.328 322.617 190.023 322.001C189.785 321.521 189.277 321.507 186.923 321.918ZM130.639 322.557C130.317 322.879 130.333 323.632 130.666 323.809C130.936 323.953 134.499 324.585 135.041 324.585C135.383 324.585 135.84 324.141 135.84 323.809C135.84 323.202 135.468 323.039 133.259 322.681C130.643 322.256 130.927 322.269 130.639 322.557ZM179.124 323.023C177.259 323.261 176.818 323.502 176.991 324.19C177.157 324.851 177.457 324.895 179.809 324.595C181.659 324.359 182.017 324.271 182.243 323.992C182.501 323.673 182.481 323.351 182.179 322.961C182.001 322.732 181.3 322.746 179.124 323.023ZM138.288 323.709C138.034 323.963 138.062 324.662 138.336 324.89C138.546 325.064 141.445 325.47 142.59 325.485C143.154 325.493 143.545 325.158 143.545 324.669C143.545 324.1 143.156 323.932 141.379 323.734C139.206 323.491 138.512 323.486 138.288 323.709ZM170.983 323.849C169.486 323.993 169.229 324.125 169.229 324.751C169.229 325.542 169.61 325.632 172.06 325.417C173.288 325.31 174.309 325.148 174.439 325.04C174.712 324.813 174.74 324.114 174.486 323.86C174.281 323.656 173.036 323.651 170.983 323.849ZM146.129 324.381C145.736 324.656 145.719 325.21 146.094 325.549C146.321 325.755 146.818 325.823 148.644 325.898L150.912 325.991L151.174 325.59C151.416 325.22 151.418 325.161 151.193 324.819C150.908 324.383 150.609 324.324 148.206 324.228C146.816 324.173 146.379 324.205 146.129 324.381ZM163.985 324.281C162.344 324.359 161.935 324.425 161.681 324.655C161.292 325.008 161.289 325.369 161.672 325.716C161.94 325.958 162.204 325.979 164.166 325.912C166 325.85 166.411 325.793 166.662 325.566C167.007 325.254 167.046 324.9 166.774 324.554C166.499 324.205 166.197 324.175 163.985 324.281ZM153.905 324.672C153.774 324.802 153.668 325.069 153.668 325.265C153.668 326.007 153.958 326.096 156.374 326.096C158.345 326.096 158.636 326.064 158.856 325.82C159.184 325.457 159.174 324.995 158.83 324.684C158.431 324.323 154.264 324.313 153.905 324.672Z" fill="black"/>
</svg>
