<svg width="415" height="384" viewBox="0 0 415 384" fill="none" xmlns="http://www.w3.org/2000/svg">
<path d="M207.108 383.423C321.49 383.423 414.215 370.82 414.215 355.273C414.215 339.726 321.49 327.122 207.108 327.122C92.7252 327.122 0 339.726 0 355.273C0 370.82 92.7252 383.423 207.108 383.423Z" fill="#889BF8"/>
<path d="M92.0243 368.552C119.555 368.552 141.874 366.563 141.874 364.109C141.874 361.655 119.555 359.666 92.0243 359.666C64.493 359.666 42.1746 361.655 42.1746 364.109C42.1746 366.563 64.493 368.552 92.0243 368.552Z" fill="#6C7FDC"/>
<path d="M207.569 360.656C235.1 360.656 257.418 358.667 257.418 356.213C257.418 353.76 235.1 351.771 207.569 351.771C180.037 351.771 157.719 353.76 157.719 356.213C157.719 358.667 180.037 360.656 207.569 360.656Z" fill="#6C7FDC"/>
<path d="M320.173 364.089C347.704 364.089 370.023 362.1 370.023 359.646C370.023 357.192 347.704 355.203 320.173 355.203C292.642 355.203 270.323 357.192 270.323 359.646C270.323 362.1 292.642 364.089 320.173 364.089Z" fill="#6C7FDC"/>
<path d="M92.0847 325.052C92.0847 325.052 78.6357 324.951 80.3269 331.534C82.0181 338.118 82.602 342.076 82.602 342.076C82.602 342.076 57.1335 347.347 57.2141 363.483L107.064 365.947C109.319 366.068 111.231 364.331 111.352 362.069L111.372 361.645C111.392 361.1 111.332 360.555 111.131 360.029L104.809 342.339C104.326 340.965 103.118 339.976 101.688 339.754L98.4669 339.249L92.0847 325.052Z" fill="#22303D"/>
<path d="M87.4943 327.739C85.8434 327.275 84.0918 328.588 83.4878 330.203C82.8838 331.819 83.1456 333.616 83.4677 335.313C83.9106 337.534 84.4743 339.756 85.1589 341.916C85.2797 342.3 85.4206 342.724 85.7427 342.987C86.0447 343.229 86.4474 343.29 86.8501 343.33C90.3532 343.714 93.8765 343.875 97.3998 343.835C98.3461 343.815 99.3125 343.795 100.198 343.471C101.628 342.967 102.675 341.856 103.742 340.745C103.178 340.24 102.494 339.897 101.708 339.776L98.487 339.271L92.7491 326.508C89.9908 327.194 87.6151 327.76 87.4943 327.739Z" fill="#182128"/>
<path d="M57.7171 359.646C57.395 360.857 57.2138 362.13 57.2339 363.483L107.084 365.947C109.339 366.068 111.251 364.331 111.372 362.069L111.392 361.645C111.412 361.423 111.392 361.201 111.372 360.979L57.7171 359.646Z" fill="#FFEECB"/>
<path d="M71.8522 345.772C65.9733 348.519 59.5106 352.941 57.7188 359.666L66.6981 359.888C67.0404 354.819 68.8725 349.872 71.8522 345.772Z" fill="#395366"/>
<path d="M66.6967 359.889L57.7173 359.667C57.6167 360.071 57.516 360.495 57.4355 360.919C57.4153 360.98 57.4153 361.04 57.3952 361.121C57.3751 361.242 57.3549 361.343 57.3549 361.464C57.3348 361.606 57.3147 361.727 57.3147 361.868C57.2945 361.969 57.2945 362.07 57.2945 362.151C57.2744 362.313 57.2744 362.494 57.2543 362.656C57.2543 362.716 57.2543 362.777 57.2543 362.858C57.2543 363.08 57.2341 363.282 57.2341 363.504L66.737 363.969C66.737 363.948 66.737 363.928 66.737 363.928C66.596 362.575 66.596 361.222 66.6967 359.889Z" fill="#DDC499"/>
<path d="M92.2858 345.591C91.0979 346.338 90.8563 347.974 90.7758 349.387C90.5543 353.083 90.5342 356.779 90.6953 360.475L111.352 361C111.312 360.677 111.251 360.353 111.13 360.05L105.252 343.612C101.909 344.621 98.4264 345.126 94.9232 345.126C94.0374 345.106 93.071 345.106 92.2858 345.591Z" fill="#182128"/>
<path d="M111.372 360.999L90.7156 360.474C90.776 362.029 90.8766 363.605 91.0176 365.16L107.084 365.947C109.339 366.068 111.251 364.332 111.372 362.07L111.392 361.646C111.392 361.524 111.392 361.424 111.392 361.302C111.392 361.201 111.372 361.1 111.372 360.999Z" fill="#DDC499"/>
<path opacity="0.83" d="M270.585 247.502C270.686 247.502 270.767 247.502 270.868 247.502C270.767 247.482 270.666 247.482 270.585 247.502Z" fill="#AF602B"/>
<path opacity="0.83" d="M270.142 247.523C270.243 247.523 270.344 247.503 270.445 247.503C270.344 247.503 270.243 247.503 270.142 247.523Z" fill="#AF602B"/>
<path opacity="0.83" d="M275.78 248.714C275.881 248.774 275.982 248.835 276.083 248.875C275.982 248.835 275.881 248.774 275.78 248.714Z" fill="#AF602B"/>
<path opacity="0.83" d="M263.176 250.048C263.378 249.926 263.58 249.785 263.782 249.664C263.58 249.805 263.378 249.926 263.176 250.048Z" fill="#AF602B"/>
<path opacity="0.83" d="M279.927 252.874C280.008 252.995 280.089 253.136 280.149 253.277C280.089 253.136 280.008 253.015 279.927 252.874Z" fill="#AF602B"/>
<path opacity="0.83" d="M280.169 253.278C280.249 253.419 280.31 253.561 280.391 253.682C280.31 253.561 280.249 253.419 280.169 253.278Z" fill="#AF602B"/>
<path opacity="0.83" d="M273.545 251.925C274.269 250.835 275.014 249.764 275.779 248.714C275.377 248.492 274.974 248.29 274.531 248.129C273.384 247.684 272.196 247.482 270.968 247.482C271.37 248.755 271.894 249.946 272.639 250.916C272.92 251.299 273.222 251.643 273.545 251.925Z" fill="#AF602B"/>
<path opacity="0.83" d="M268.251 294.053C268.069 294.194 267.868 294.315 267.686 294.436C267.868 294.315 268.069 294.194 268.251 294.053Z" fill="#AF602B"/>
<path opacity="0.83" d="M276.364 249.078C276.283 249.018 276.182 248.957 276.081 248.917C276.182 248.957 276.283 249.018 276.364 249.078Z" fill="#AF602B"/>
<path opacity="0.83" d="M279.927 252.875C278.981 251.299 277.793 249.987 276.363 249.078C275.578 250.148 274.813 251.239 274.068 252.349C275.639 253.44 277.591 253.622 279.927 252.875Z" fill="#AF602B"/>
<path opacity="0.83" d="M268.351 293.972C268.311 293.992 268.27 294.013 268.25 294.053C268.29 294.033 268.331 294.013 268.351 293.972Z" fill="#AF602B"/>
<path opacity="0.83" d="M267.605 294.498C267.626 294.478 267.667 294.457 267.687 294.437C267.646 294.457 267.626 294.478 267.605 294.498Z" fill="#AF602B"/>
<path opacity="0.83" d="M263.842 249.643C263.822 249.664 263.801 249.664 263.78 249.685C263.801 249.664 263.822 249.643 263.842 249.643Z" fill="#AF602B"/>
<path opacity="0.83" d="M263.116 250.09C263.137 250.069 263.157 250.069 263.178 250.049C263.157 250.069 263.137 250.069 263.116 250.09Z" fill="#AF602B"/>
<path opacity="0.83" d="M276.061 248.896L276.081 248.915C276.081 248.896 276.081 248.896 276.061 248.896Z" fill="#AF602B"/>
<path d="M316.086 318.671C316.086 318.671 302.778 320.609 305.435 326.87C308.093 333.13 309.281 336.947 309.281 336.947C309.281 336.947 297.261 344.137 299.798 360.071L337.065 356.839C339.299 356.597 340.95 354.598 340.729 352.356L340.689 351.932C340.628 351.387 340.467 350.862 340.205 350.377L331.286 333.857C330.602 332.585 329.253 331.777 327.803 331.777H324.542L316.086 318.671Z" fill="#22303D"/>
<path d="M311.939 322.024C310.227 321.822 308.717 323.377 308.355 325.073C308.013 326.769 308.536 328.506 309.12 330.122C309.885 332.262 310.771 334.343 311.777 336.382C311.959 336.746 312.16 337.129 312.522 337.352C312.865 337.554 313.267 337.533 313.67 337.513C317.193 337.352 320.696 336.988 324.18 336.402C325.106 336.241 326.072 336.059 326.897 335.615C328.226 334.908 329.112 333.656 329.978 332.384C329.354 331.98 328.609 331.737 327.824 331.737H324.562L316.952 320.004C314.314 321.115 312.059 322.044 311.939 322.024Z" fill="#182128"/>
<path d="M299.698 356.213C299.557 357.445 299.577 358.738 299.799 360.07L337.065 356.839C339.3 356.597 340.951 354.598 340.729 352.356L340.689 351.932C340.669 351.71 340.629 351.487 340.568 351.286L299.698 356.213Z" fill="#FFEECB"/>
<path d="M311.577 340.319C306.181 343.914 300.463 349.286 299.719 356.192L308.617 355.041C308.195 350.013 309.241 344.823 311.577 340.319Z" fill="#395366"/>
<path d="M308.617 355.062L299.718 356.213C299.678 356.637 299.637 357.061 299.637 357.485C299.637 357.546 299.637 357.627 299.637 357.687C299.637 357.808 299.637 357.909 299.637 358.031C299.637 358.172 299.637 358.293 299.658 358.434C299.658 358.535 299.658 358.636 299.678 358.737C299.698 358.899 299.698 359.081 299.718 359.242C299.718 359.303 299.738 359.363 299.738 359.444C299.758 359.666 299.799 359.868 299.819 360.09L309.281 359.101C309.281 359.081 309.281 359.061 309.261 359.061C308.939 357.728 308.717 356.395 308.617 355.062Z" fill="#DDC499"/>
<path d="M319.388 338.945C318.321 339.874 318.341 341.51 318.462 342.924C318.804 346.599 319.348 350.275 320.052 353.91L340.548 351.284C340.467 350.961 340.346 350.658 340.185 350.376L331.891 335.007C328.73 336.502 325.367 337.552 321.925 338.077C321.039 338.198 320.072 338.339 319.388 338.945Z" fill="#182128"/>
<path d="M340.568 351.264L320.072 353.889C320.374 355.424 320.717 356.939 321.079 358.474L337.065 356.818C339.299 356.575 340.95 354.576 340.729 352.334L340.689 351.91C340.668 351.789 340.668 351.688 340.648 351.567C340.608 351.466 340.588 351.365 340.568 351.264Z" fill="#DDC499"/>
<path d="M325.428 330.161C321.341 319.114 310.851 289.549 310.992 276.927C311.173 261.276 287.456 236.779 287.456 236.779L238.211 172.438L170.825 180.495L62.1463 238.475C62.1463 238.475 50.6302 240.818 54.4353 249.906C57.9184 258.246 87.0309 329.333 91.8629 341.127C92.2655 342.117 93.252 342.722 94.3191 342.642L98.5873 342.319C100.158 342.197 101.225 340.622 100.721 339.107L88.3194 300.777C88.3194 300.777 102.272 284.763 94.1983 272.423C86.145 260.084 80.1856 256.55 80.1856 256.55C80.1856 256.55 185.22 231.387 208.494 222.441C208.494 222.441 254.66 245.503 267.625 250.209C280.571 254.934 265.31 266.324 281.98 284.258C295.51 298.839 310.227 325.213 315.26 334.584C316.307 336.543 318.643 337.431 320.716 336.684L322.73 335.957C325.105 335.129 326.313 332.524 325.428 330.161Z" fill="#EF7C2E"/>
<path d="M325.589 330.567C323.455 324.811 319.368 313.461 316.066 302.213C314.214 304.919 312.019 307.383 309.281 309.119C307.086 310.513 304.469 311.361 301.892 311.442C308.013 321.216 313.006 330.324 315.462 334.888C316.408 336.665 318.502 337.473 320.394 336.787L323.153 335.797C325.287 335.07 326.374 332.707 325.589 330.567Z" fill="#FFEECB"/>
<path d="M306.845 284.662C298.63 287.893 289.107 287.267 281.195 283.389C281.457 283.672 281.719 283.975 281.98 284.258C285.02 287.529 288.121 291.407 291.161 295.527C291.866 295.385 292.59 295.203 293.295 295.022C298.932 293.446 304.328 289.973 306.845 284.662Z" fill="#7C3F15"/>
<path d="M285.162 233.751L279.021 225.733C271.068 236.881 260.66 242.011 253.895 244.293C259.633 246.918 264.565 249.059 267.646 250.19C268.129 250.371 268.592 250.573 269.035 250.816C271.27 249.563 273.182 247.847 275.014 246.05C278.799 242.313 282.202 238.194 285.162 233.751Z" fill="#7C3F15"/>
<path d="M65.2069 251.098C65.8512 250.513 66.4351 249.846 66.8176 249.079C67.6833 247.221 67.18 245.02 66.4552 243.081C65.7304 241.183 64.8244 239.365 63.7171 237.649L62.1668 238.477C62.1668 238.477 50.6507 240.819 54.4558 249.907C54.8182 250.775 55.4826 252.371 56.3484 254.491C59.5898 254.471 62.8111 253.28 65.2069 251.098Z" fill="#FFA364"/>
<path d="M105.051 215.595L99.4941 218.564C99.7155 222.158 100.118 225.753 100.903 229.267C102.293 235.406 104.97 241.404 109.52 245.746C96.5345 250.331 83.6291 254.632 70.2205 257.783C72.9787 257.439 75.9383 259.802 77.6899 261.943C87.4142 273.858 89.2664 291.67 82.1796 305.322C84.5351 303.726 86.79 301.99 88.9242 300.111C91.4005 297.001 101.387 283.269 94.2796 272.404C86.2263 260.065 80.2669 256.531 80.2669 256.531C80.2669 256.531 99.6954 252.411 123.654 246.776C111.735 236.618 106.883 222.845 105.051 215.595Z" fill="#7C3F15"/>
<path d="M89.0244 319.257C87.152 319.964 85.0984 320.145 83.1455 319.762C87.2527 329.778 90.5344 337.816 91.9034 341.128C92.3061 342.118 93.2926 342.723 94.3597 342.643L98.6279 342.32C100.198 342.198 101.265 340.623 100.762 339.108L93.353 316.207C92.1652 317.56 90.6753 318.61 89.0244 319.257Z" fill="#FFEECB"/>
<path d="M170.846 180.496L104.044 210.668C104.044 210.668 107.184 235.73 127.64 249.927L208.515 222.441L247.009 246.07C247.009 246.07 268.532 243.424 281.195 222.441L242.499 175.104C242.52 175.084 207.146 190.513 170.846 180.496Z" fill="#4162FF"/>
<path d="M232.816 215.475C232.111 214.748 231.406 213.98 231.024 213.051C229.735 209.981 231.688 205.801 230.802 202.59C224.36 210.648 216.165 216.969 207.569 222.745L208.515 222.422L247.009 246.05C247.009 246.05 254.358 245.141 263.015 240.193C251.982 233.246 241.815 224.926 232.816 215.475Z" fill="#000093"/>
<path d="M173.966 206.123C175.033 201.599 176.885 197.217 177.066 192.572C177.227 188.432 175.798 184.433 173.362 181.142C172.536 180.94 171.691 180.718 170.865 180.495L148.397 190.633C147.571 208.284 146.826 225.954 146.182 243.605L166.356 236.739C168.772 231.266 170.745 225.631 171.812 219.734C172.637 215.231 172.899 210.606 173.966 206.123Z" fill="#000093"/>
<path d="M177.046 192.573C176.905 196.309 175.677 199.884 174.65 203.478C181.073 198.349 186.912 192.553 191.864 185.989C186.287 184.616 180.711 183.223 175.134 181.849C174.63 181.728 174.107 181.607 173.604 181.486C175.879 184.737 177.207 188.574 177.046 192.573Z" fill="white"/>
<path d="M148.014 198.751C135.351 208.182 121.72 216.321 107.406 223.005C108.634 226.216 110.265 229.811 112.459 233.426C124.237 229.71 135.934 225.59 147.088 220.34C147.37 213.15 147.672 205.961 148.014 198.751Z" fill="white"/>
<path d="M170.342 181.384C168.349 181.788 166.738 183.222 165.228 184.595C159.712 189.583 153.974 194.309 148.014 198.752C147.692 205.941 147.37 213.151 147.068 220.34C148.92 219.472 150.752 218.563 152.564 217.634C160.336 213.635 167.805 208.93 174.651 203.477C175.677 199.862 176.905 196.288 177.046 192.572C177.207 188.573 175.879 184.716 173.583 181.485C172.516 181.283 171.409 181.162 170.342 181.384Z" fill="#405A72"/>
<path d="M163.839 73.5225C162.873 70.5135 163.195 67.2015 162.249 64.1722C160.094 57.2251 151.276 53.7919 144.451 56.2557C137.626 58.7195 133.156 65.7878 132.29 73.0176C131.425 80.2475 133.66 87.5379 136.981 94.0003C137.223 94.4648 137.485 94.9495 137.928 95.2524C138.975 95.9391 140.364 95.1918 141.23 94.3033C142.095 93.4147 142.88 92.2636 144.088 91.9808C147.129 91.274 148.8 96.2622 151.92 96.4035C152.665 96.4439 153.39 96.1814 154.095 95.9189C159.208 93.9599 164.504 91.173 167.906 86.7301C169.497 84.65 171.087 82.4084 169.678 80.3081C167.906 77.7029 164.967 77.0567 163.839 73.5225Z" fill="#EF7C2E"/>
<path d="M135.492 78.0866C136.257 79.0358 137.505 79.4599 138.391 80.3081C138.632 78.3693 139.639 76.5316 141.169 75.2997C141.733 74.8352 142.397 74.4515 143.122 74.3303C144.773 74.0476 146.464 75.3805 146.806 77.0163C147.149 78.6521 146.303 80.4292 144.934 81.3784C147.189 82.6709 149.565 84.0038 152.162 84.0643C153.571 84.1047 154.96 83.7412 156.309 83.3979C158.262 82.9132 160.195 82.4084 162.148 81.9237C162.591 81.8025 163.054 81.6813 163.416 81.4188C163.779 81.1563 164 80.7524 164.222 80.3686C164.886 79.2377 165.55 78.127 166.215 76.9961C165.228 76.1277 164.342 75.1179 163.839 73.5225C162.873 70.5135 163.195 67.2015 162.248 64.1722C160.094 57.2251 151.276 53.7919 144.451 56.2557C137.626 58.7195 133.156 65.7878 132.29 73.0176C132.23 73.5023 132.19 73.987 132.149 74.4717C133.156 73.9668 134.102 73.3408 134.968 72.6541C134.606 74.4919 134.284 76.6326 135.492 78.0866Z" fill="#7C3F15"/>
<path d="M172.718 82.5292C172.718 82.5292 177.227 110.621 191.683 111.731C206.118 112.842 213.97 107.147 220.433 106.824C226.896 106.521 253.009 108.298 253.009 108.298C253.009 108.298 257.096 115.164 272.075 119.607C287.054 124.05 323.193 142.206 323.193 142.206L328.407 136.127L269.175 88.8705C269.175 88.8705 268.974 81.1762 262.773 84.9122C256.572 88.6483 252.767 89.3754 252.767 89.3754L222.064 84.4276L206.924 80.5703L206.662 80.2472C204.105 77.016 200.119 75.259 196.012 75.5417C189.106 76.0062 178.536 77.541 172.718 82.5292Z" fill="#7C3F15"/>
<path d="M220.957 92.1631C217.594 91.3957 214.212 90.6485 210.991 89.4166C209.159 88.7098 207.367 87.8818 205.595 87.0336C198.649 83.7418 191.703 80.45 184.757 77.1582C180.247 78.2285 175.818 79.9047 172.738 82.5503C172.738 82.5503 177.248 110.642 191.703 111.752C206.139 112.863 213.991 107.168 220.453 106.845C225.769 106.582 244.412 107.754 250.834 108.178C251.66 105.25 252.646 102.362 253.754 99.5344C242.801 97.0706 231.869 94.6068 220.957 92.1631Z" fill="#7C3F15"/>
<path d="M201.548 98.7856C199.475 97.1498 196.616 96.8671 193.998 97.2104C188.925 97.8566 184.214 100.664 181.012 104.662C183.73 108.52 187.234 111.408 191.683 111.751C196.797 112.155 201.085 111.69 204.77 110.923C205.072 109.065 205.092 107.146 204.81 105.268C204.447 102.804 203.481 100.32 201.548 98.7856Z" fill="#FFA364"/>
<path d="M262.773 84.912C256.592 88.6481 252.767 89.3751 252.767 89.3751L222.064 84.4273L206.924 80.5701L206.662 80.2469C204.105 77.0157 200.119 75.2588 196.012 75.5415C193.797 75.6829 191.2 75.9454 188.522 76.3897C189.428 76.632 190.334 76.9147 191.22 77.2379C195.971 78.9948 200.26 81.802 204.488 84.6293C207.931 86.9315 211.494 89.3953 213.467 93.0304C213.266 90.5262 214.152 88.4058 213.044 86.1439C226.775 87.6989 240.405 90.1223 253.834 93.3535C255.405 92.8285 257.881 92.0611 259.552 92.1418C261.223 92.2024 262.954 93.0304 263.639 94.5451C264.525 96.504 263.438 98.7658 262.27 100.563C265.169 100.987 268.229 99.089 269.155 96.302C283.752 109.712 302.717 118.456 319.79 129.24L269.176 88.85C269.176 88.8702 268.974 81.1759 262.773 84.912Z" fill="#EF7C2E"/>
<path d="M129.975 105.532L133.8 95.737C133.8 95.737 151.558 77.9856 183.288 75.0977C183.288 75.0977 235.151 78.4702 241.956 169.813C245.278 172.68 245.66 176.901 244.875 181.223C237.828 182.212 231.345 185.504 224.621 187.887C204.246 195.117 180.992 193.764 161.604 184.191C162.269 175.407 163.819 167.49 166.819 159.21C167.483 157.393 168.208 155.514 168.047 153.576C167.886 151.536 166.758 149.718 165.611 148.022C161.363 141.762 156.269 136.067 150.511 131.139C145.941 127.221 140.948 123.768 136.981 119.244C133.015 114.72 129.23 111.509 129.975 105.532Z" fill="#4162FF"/>
<path d="M157.276 102.281C162.269 105.573 166.778 109.874 169.899 114.943C175.315 115.529 180.711 116.357 186.026 117.589C189.831 118.477 193.717 119.568 197.562 118.962C201.347 118.376 204.75 116.175 208.555 115.69C209.561 115.569 210.608 115.549 211.494 115.064C212.501 114.519 213.125 113.449 213.668 112.419C216.004 108.057 218.078 103.573 219.87 98.9486C203.119 76.3705 183.288 75.078 183.288 75.078C151.558 77.9861 133.8 95.7174 133.8 95.7174C133.8 95.7174 134.887 94.6268 137.001 92.9506C144.068 95.4144 151.054 98.161 157.276 102.281Z" fill="#4162FF"/>
<path d="M240.828 179.163C225.608 186.757 208.635 193.38 191.965 189.988C186.65 188.917 180.147 184.596 177.349 179.931C175.677 177.164 176.06 173.63 177.026 170.56C177.993 167.49 179.503 164.562 180.026 161.391C181.274 153.818 176.765 146.589 175.295 139.056C174.369 134.229 174.691 129.221 173.704 124.394C171.792 115.165 165.128 107.471 157.276 102.281C151.055 98.1809 144.068 95.4142 137.002 92.9706C134.888 94.6468 133.801 95.7373 133.801 95.7373L129.975 105.532C129.23 111.51 133.056 114.721 137.022 119.224C140.988 123.728 145.981 127.201 150.551 131.119C156.289 136.047 161.383 141.742 165.651 148.002C166.799 149.699 167.926 151.516 168.087 153.556C168.248 155.495 167.503 157.352 166.859 159.19C163.859 167.47 162.309 175.387 161.645 184.172C181.033 193.724 204.287 195.097 224.661 187.867C231.366 185.484 237.849 182.192 244.915 181.203C245.177 179.749 245.318 178.295 245.238 176.922C243.748 177.689 242.298 178.416 240.828 179.163Z" fill="#000093"/>
<path d="M160.014 88.0433C165.973 87.902 171.369 84.7111 176.483 81.6415C177.449 81.0558 178.476 80.3894 178.798 79.2989C179.161 78.067 178.476 76.8351 177.691 75.7849C165.188 77.6832 155.142 81.8434 147.833 85.8623C148.82 86.1046 149.807 86.3671 150.813 86.6095C153.813 87.3567 156.893 88.1039 160.014 88.0433Z" fill="#EF7C2E"/>
<path d="M168.752 135.602C168.933 134.208 168.57 132.815 168.127 131.482C162.933 115.164 149.806 101.654 133.841 95.6962C133.8 95.7366 133.78 95.7366 133.78 95.7366L129.955 105.531C129.21 111.509 133.035 114.72 137.002 119.223C140.968 123.727 145.961 127.2 150.531 131.118C154.638 134.632 158.383 138.53 161.765 142.771C163.396 142.104 164.906 141.175 166.215 139.944C167.463 138.772 168.53 137.298 168.752 135.602Z" fill="#7C3F15"/>
<path d="M133.802 95.7363C133.802 95.7363 108.011 111.892 112.924 126.695C117.836 141.498 126.715 146.89 129.715 153.151C132.715 159.432 141.815 186.069 141.815 186.069C141.815 186.069 136.741 192.976 138.614 209.677C140.486 226.378 137.627 269.778 137.627 269.778L145.781 272.423L167.706 194.006C167.706 194.006 175.196 190.593 168.955 186.029C162.713 181.444 160.378 177.95 160.378 177.95L152.465 145.457L149.969 128.836L150.19 128.452C152.304 124.575 152.385 119.89 150.412 115.931C147.07 109.267 141.151 99.432 133.802 95.7363Z" fill="#EF7C2E"/>
<path d="M129.794 131.078C130.539 128.332 129.613 125.383 128.204 122.919C125.466 118.153 120.734 114.66 115.46 113.145C112.802 117.446 111.393 122.132 112.903 126.676C114.634 131.906 116.869 135.965 119.184 139.318C121.157 138.833 123.05 138.066 124.761 136.995C127.036 135.622 129.09 133.643 129.794 131.078Z" fill="#FFA364"/>
<path d="M168.933 186.029C162.692 181.444 160.356 177.951 160.356 177.951L152.444 145.457L149.947 128.836L150.169 128.452C152.283 124.575 152.363 119.89 150.39 115.931C149.323 113.791 147.994 111.327 146.424 108.863C146.565 109.873 146.666 110.883 146.706 111.892C146.947 117.345 145.961 122.757 144.934 128.109C144.109 132.471 143.162 137.035 140.384 140.509C142.76 139.257 145.236 139.257 146.988 137.217C151.155 151.475 154.457 165.995 156.873 180.657C158.061 181.99 159.833 184.13 160.457 185.806C161.081 187.483 161 189.542 159.792 190.875C158.242 192.572 155.544 192.43 153.289 192.026C154.075 195.076 157.215 197.318 160.356 197.075C153.229 217.129 152.484 239.586 148.961 260.993L167.705 194.006C167.705 194.006 175.194 190.613 168.933 186.029Z" fill="#7C3F15"/>
<path d="M188.442 112.076L188.341 112.116L183.469 117.286L181.415 114.055L187.556 107.593L191.482 106.3L202.716 140.49L198.267 141.965L188.442 112.076Z" fill="white"/>
<path d="M204.227 105.613L204.126 105.654L199.254 110.824L197.2 107.592L203.341 101.13L207.267 99.8375L218.501 134.028L214.052 135.502L204.227 105.613Z" fill="white"/>
<path d="M342.883 174.741C343.045 174.943 343.206 175.145 343.368 175.367C343.227 175.165 343.065 174.943 342.883 174.741Z" fill="#AF602B"/>
<path d="M345.521 199.014C345.441 199.176 345.34 199.358 345.259 199.519C345.36 199.337 345.441 199.176 345.521 199.014Z" fill="#AF602B"/>
<path d="M343.428 175.428C343.408 175.408 343.387 175.387 343.366 175.366C343.408 175.387 343.408 175.408 343.428 175.428Z" fill="#AF602B"/>
<path d="M342.843 174.679C342.864 174.7 342.885 174.72 342.885 174.741C342.885 174.72 342.864 174.7 342.843 174.679Z" fill="#AF602B"/>
<path opacity="0.83" d="M235.192 340.482C235.171 340.603 235.171 340.704 235.151 340.825C235.171 340.724 235.171 340.603 235.192 340.482Z" fill="#AF602B"/>
<path opacity="0.83" d="M232.778 345.975C232.677 346.097 232.575 346.219 232.473 346.34C232.575 346.219 232.677 346.097 232.778 345.975Z" fill="#AF602B"/>
<path opacity="0.83" d="M185.786 351.71C185.564 351.589 185.362 351.467 185.14 351.346C185.342 351.467 185.564 351.589 185.786 351.71Z" fill="#AF602B"/>
<path opacity="0.83" d="M185.906 351.772C185.866 351.751 185.825 351.731 185.784 351.711C185.825 351.731 185.866 351.751 185.906 351.772Z" fill="#AF602B"/>
<path opacity="0.83" d="M185.039 351.286C185.06 351.306 185.101 351.327 185.121 351.347C185.101 351.327 185.08 351.306 185.039 351.286C185.06 351.286 185.06 351.286 185.039 351.286Z" fill="#AF602B"/>
<path d="M157.195 295.527C156.309 294.739 155.141 294.376 154.115 293.831C153.108 293.306 152.162 292.7 151.256 292.013C150.551 291.488 149.887 290.902 149.263 290.276C149.323 290.216 149.383 290.175 149.444 290.135C149.645 289.953 149.846 289.731 149.947 289.468C150.108 288.984 149.867 288.479 149.625 288.035C148.578 286.035 147.753 283.935 147.149 281.774C146.605 279.856 146.243 277.876 146.383 275.897C146.444 274.968 146.625 274.019 146.545 273.09C146.081 267.456 138.974 266.85 136.176 270.808C134.827 272.727 133.74 274.847 132.914 277.069C132.753 277.149 132.612 277.25 132.471 277.351C131.948 277.715 131.425 278.119 130.941 278.543C129.915 279.411 129.069 280.482 128.304 281.572C127.559 282.643 126.995 283.814 126.492 285.046C125.968 286.358 125.344 287.853 126.049 289.186C126.572 290.155 127.801 290.135 128.546 289.509C129.472 288.741 129.552 287.227 129.935 286.156C130.277 285.167 130.76 284.218 131.284 283.329C131.304 283.289 131.324 283.248 131.344 283.228C131.183 284.319 131.082 285.409 131.042 286.5C130.478 288.802 130.297 291.185 130.478 293.568C130.619 295.507 130.921 297.486 131.505 299.344C132.089 301.182 132.834 303.544 134.384 304.817C135.411 305.665 136.86 304.877 136.599 303.524C136.277 301.848 135.23 300.293 134.666 298.657C134.102 296.961 133.659 295.204 133.478 293.427C133.438 293.104 133.418 292.76 133.398 292.437C133.7 292.578 134.002 292.72 134.304 292.841C134.646 294.376 135.27 295.85 135.894 297.183C136.679 298.839 137.626 300.374 138.733 301.828C139.76 303.161 141.25 304.958 143.102 304.857C144.088 304.797 145.055 303.605 144.35 302.656C143.545 301.565 142.357 300.758 141.471 299.687C140.525 298.536 139.719 297.264 139.015 295.951C138.652 295.285 138.27 294.537 137.928 293.77C138.914 293.891 139.901 293.891 140.887 293.831C141.431 294.962 142.115 296.032 142.88 297.001C143.786 298.152 144.833 299.142 146.001 300.03C147.108 300.858 148.739 302.03 150.189 301.808C150.913 301.707 151.497 301.101 151.457 300.354C151.417 299.465 150.692 298.96 149.987 298.556C148.779 297.87 147.571 297.244 146.524 296.315C145.558 295.487 144.612 294.436 143.827 293.285C144.914 292.962 145.981 292.518 146.967 291.952C147.531 292.639 148.135 293.285 148.739 293.891C149.726 294.861 150.873 295.729 152.041 296.476C153.249 297.244 154.678 298.112 156.148 298.112C157.376 298.031 158.181 296.395 157.195 295.527Z" fill="#EF7C2E"/>
<path d="M354.158 149.477C353.695 148.205 352.446 147.296 351.42 146.468C350.292 145.539 349.044 144.731 347.715 144.146C347.011 143.823 346.286 143.56 345.541 143.358C345.42 143.197 345.279 143.055 345.138 142.894C346.004 142.772 346.93 142.793 347.776 142.914C349.084 143.116 350.312 143.681 351.621 143.883C352.628 144.045 353.916 142.954 353.151 141.904C351.198 139.218 347.131 138.572 344.051 138.996C343.145 139.117 342.158 139.359 341.212 139.683C340.91 139.501 340.608 139.319 340.286 139.137C341.192 138.673 342.118 138.269 343.024 137.986C344.131 137.623 344.011 135.785 342.742 135.866C340.588 135.987 338.615 136.492 336.743 137.481C335.132 136.875 333.441 136.431 331.729 136.189C329.011 135.805 324.723 135.987 323.354 138.956C323.153 139.4 323.052 140.127 323.032 140.975C322.569 141.197 322.106 141.44 321.683 141.662C319.227 142.974 316.871 144.711 315.281 147.054C314.334 148.447 316.207 150.305 317.596 149.376C319.529 148.084 321.361 146.69 323.475 145.701C323.656 146.569 323.878 147.296 324.099 147.68C324.3 148.023 324.643 148.245 325.005 148.427C326.857 149.376 329.032 149.316 331.105 149.235C332.817 149.174 334.548 149.094 336.259 149.033C337.93 148.972 339.682 148.912 341.192 149.619C341.856 149.942 342.46 150.386 343.185 150.568C344.977 150.992 346.608 149.295 346.91 147.458C347.856 147.922 348.722 148.508 349.588 149.094C350.514 149.72 351.48 150.75 352.608 151.012C353.493 151.174 354.5 150.406 354.158 149.477Z" fill="#7C3F15"/>
<path d="M302.053 171.084C298.067 171.205 294.382 173.528 291.987 176.638C291.221 177.627 292.591 178.718 293.356 177.708C295.57 174.8 298.771 173.144 302.194 172.174C302.778 171.993 302.677 171.064 302.053 171.084Z" fill="#7C3F15"/>
<path d="M306.805 165.33C303.121 165.855 299.617 167.067 296.195 168.501C295.631 168.743 295.873 169.672 296.457 169.43C299.899 168.076 303.483 167.127 307.026 166.118C307.53 165.976 307.308 165.269 306.805 165.33Z" fill="#7C3F15"/>
<path d="M355.205 174.437C354.057 171.953 352.447 169.752 350.635 167.712C350.232 167.248 349.588 167.914 349.97 168.379C351.661 170.398 353.03 172.64 354.259 174.983C354.601 175.609 355.487 175.063 355.205 174.437Z" fill="#7C3F15"/>
<path d="M362.352 176.336C362.231 175.891 362.131 175.427 362.01 174.983C361.929 174.639 361.547 174.437 361.205 174.518C360.903 174.599 360.601 175.003 360.741 175.326C360.923 175.77 361.104 176.194 361.285 176.639C361.406 176.921 361.647 177.123 361.97 177.022C362.272 176.942 362.433 176.618 362.352 176.336Z" fill="#7C3F15"/>
<path d="M336.588 161.643C339.427 162.698 341.95 164.069 344.052 165.967C344.578 166.389 344.999 166.81 345.524 167.232C348.363 169.974 350.465 173.454 351.832 177.145C352.042 177.883 352.358 178.621 352.463 179.465C353.514 184.105 353.409 188.956 351.622 193.807C350.781 196.232 349.624 198.342 348.153 200.24C347.417 201.294 346.576 202.243 345.735 203.087C342.475 206.356 338.27 208.676 333.855 209.731C331.752 210.258 329.439 210.469 327.231 210.363C324.708 210.258 322.185 209.836 319.662 208.887C316.298 207.727 313.354 205.829 310.936 203.509C310.41 202.982 309.885 202.56 309.464 202.032C308.202 200.556 307.046 198.974 306.1 197.287C305.469 196.127 304.943 194.861 304.523 193.596C303.892 191.698 303.472 189.8 303.261 187.796C303.156 186.32 303.051 184.738 303.261 183.156C303.472 181.047 303.892 178.832 304.628 176.723C308.518 165.967 319.031 159.429 329.86 160.167C330.806 160.272 331.647 160.378 332.488 160.483C333.855 160.799 335.221 161.116 336.588 161.643Z" fill="#E33D6F"/>
<path d="M307.887 170.501C314.405 165.65 323.131 163.963 331.331 166.916C344.367 171.556 351.096 186.003 346.365 198.974C345.524 201.294 344.473 203.298 343.106 205.196C346.891 202.349 349.939 198.447 351.622 193.596C356.247 180.52 349.519 166.178 336.588 161.538C325.864 157.741 314.195 161.749 307.887 170.501Z" fill="#C72153"/>
<path d="M321.239 184.317C329.124 178.411 339.848 174.615 350.361 173.771C350.676 174.299 350.886 174.931 351.202 175.564C340.794 176.302 330.175 179.993 322.396 185.899C319.242 188.219 317.244 191.382 317.139 194.335C317.139 194.546 317.139 194.757 317.139 194.968C318.611 195.39 320.083 195.601 321.66 195.812C332.068 196.866 343.843 193.491 353.094 187.164C352.989 188.008 352.989 188.746 352.779 189.59C343.422 195.601 331.858 198.764 321.45 197.71C320.083 197.604 318.821 197.393 317.56 197.077C317.98 198.237 318.821 199.397 319.978 200.346C325.129 204.67 333.54 206.884 340.689 207.095C339.637 207.728 338.481 208.255 337.324 208.782C330.701 208.15 323.552 205.935 318.716 201.822C316.929 200.346 315.878 198.553 315.457 196.55C314.09 196.128 312.724 195.601 311.462 194.968C311.672 196.444 312.198 197.921 312.829 199.397C314.931 203.932 318.926 207.833 323.762 210.259C321.555 209.837 319.452 209.204 317.455 208.255C314.826 205.935 312.618 203.193 311.252 200.241C310.306 198.132 309.78 196.128 309.57 194.019C308.729 193.491 307.888 192.859 307.152 192.226C306.731 193.492 306.1 194.651 305.259 195.601C304.944 194.968 304.734 194.335 304.523 193.597C305.049 192.753 305.469 191.804 305.68 190.855C304.944 190.117 304.208 189.273 303.577 188.324C303.472 188.219 303.367 188.113 303.367 188.008C303.262 186.637 303.262 185.371 303.262 184.001C303.682 185.161 304.313 186.215 305.049 187.27C305.259 187.586 305.575 188.008 305.89 188.324C305.785 186.742 305.469 185.161 305.154 183.579C305.049 182.841 304.839 181.997 304.734 181.259C304.523 180.204 304.418 179.255 304.313 178.2C304.734 176.724 305.364 175.353 306.1 173.982C305.995 176.302 306.1 178.728 306.521 180.942C306.626 181.681 306.836 182.419 306.941 183.157C307.362 185.477 307.888 187.797 307.677 190.117C308.308 190.644 308.939 191.171 309.675 191.699C309.78 189.379 310.306 187.164 311.357 184.95C313.775 179.677 317.98 174.51 322.501 171.03C327.127 167.444 333.329 164.702 339.742 163.226C340.583 163.648 341.319 164.07 342.055 164.597C335.327 165.968 328.493 168.815 323.657 172.506C319.347 175.775 315.457 180.731 313.144 185.688C312.093 188.008 311.567 190.433 311.567 192.753C312.829 193.492 314.195 194.124 315.562 194.546V194.441C315.457 190.75 317.665 187.059 321.239 184.317Z" fill="#261C27"/>
<path d="M196.51 261.55C197.087 259.565 199.9 259.565 200.478 261.55L204.653 275.89L208.502 289.112L212.864 304.097L217.272 319.237L221.68 334.378H184.123H178.527H175.307L179.715 319.237L184.123 304.097L188.486 289.112L192.335 275.89L196.51 261.55Z" fill="#4162FF"/>
<rect x="173.375" y="334.067" width="50.2376" height="6.17021" fill="#3152EF"/>
<path d="M197.078 264.471L178.528 334.378H184.123L198.336 264.766C198.417 264.365 198.111 263.99 197.703 263.99C197.41 263.99 197.153 264.188 197.078 264.471Z" fill="#6384FF"/>
<path d="M212.864 304.096H184.123L179.715 319.237H217.272L212.864 304.096Z" fill="#F7F7F7"/>
<path d="M204.652 275.891H192.335L188.485 289.112H208.502L204.652 275.891Z" fill="#F7F7F7"/>
<rect x="170.799" y="336.711" width="55.3902" height="6.17021" rx="2.58318" fill="#4162FF"/>
<path fill-rule="evenodd" clip-rule="evenodd" d="M262.108 51.5867C261.821 51.6957 261.276 52.5358 259.829 55.1005L257.926 58.4712L257.821 57.6694C257.464 54.936 256.039 51.5135 254.328 49.279C251.637 45.764 246.575 42.6003 242.1 41.6359C239.863 41.154 236.063 40.9155 233.802 41.1153C232.729 41.2101 231.896 41.1866 231.92 41.0622C232.047 40.4164 231.536 37.9296 231.054 36.8446C230.084 34.6636 229.375 33.9425 226.751 32.4687C224.635 31.2806 224.344 31.167 222.58 30.8393C218.357 30.0544 213.952 30.1973 209.72 31.2559L207.12 31.9065L207.154 30.5621C207.194 28.954 206.487 25.8532 205.769 24.4915C204.848 22.7435 203.878 21.7773 201.913 20.6486C199.844 19.4602 198.216 19.0254 195.458 18.9243C192.352 18.8104 189.523 19.444 186.326 20.9707C184.783 21.7069 184.769 21.7089 184.734 21.1869C184.636 19.7064 183.923 16.4371 183.396 15.0479C181.823 10.9054 179.206 8.60669 175.843 8.41282C174.173 8.31662 171.337 8.95767 169.572 9.83075C165.687 11.7514 162.084 15.8664 159.61 21.2064C158.519 23.5627 156.919 27.719 156.935 28.1543C156.945 28.4121 157.52 28.7491 157.742 28.6274C157.833 28.5774 158.218 27.6489 158.597 26.5641C161.241 19.0093 165.276 13.4542 169.846 11.0759C171.6 10.1628 174.2 9.57196 175.889 9.70286C179.772 10.0039 182.315 13.6137 183.198 20.08C183.483 22.1615 183.473 22.3579 183.065 22.6779C182.823 22.8682 181.735 23.7198 180.649 24.5703C177.665 26.9057 175.2 29.4322 172.275 33.1522C170.596 35.2874 166.716 41.8126 165.577 44.4165C163.391 49.4147 162.719 53.632 163.799 55.5714C164.246 56.3742 165.358 56.999 166.421 57.0452C168.951 57.1548 173.539 54.0993 176.608 50.2619C178.202 48.2692 180.633 43.9692 181.655 41.3348C182.967 37.9547 183.985 34.0641 184.46 30.6205C184.657 29.1903 184.927 24.9762 184.884 23.9894C184.869 23.6318 185.135 23.4312 186.615 22.6818C190.149 20.8925 193.853 20.2368 197.332 20.7843C198.947 21.0385 199.306 21.1684 200.979 22.103C202.733 23.0832 202.88 23.205 203.68 24.3413C204.743 25.8513 205.416 28.2508 205.451 30.6575C205.465 31.6142 205.445 32.4531 205.406 32.5218C205.367 32.5906 204.476 33.0874 203.425 33.6259C197.544 36.6417 192.736 41.1662 188.504 47.6669C187.232 49.6221 185.438 53.4421 184.757 55.6472C182.24 63.799 185.56 67.0895 191.493 62.3247C194.451 59.9497 197.091 56.6323 200.251 51.3183C203.663 45.5815 205.496 41.1576 206.53 36.1629L206.974 34.023L207.585 33.7373C208.762 33.1878 212.619 32.359 214.733 32.2011C217.402 32.002 219.726 32.1114 222.109 32.5484C223.787 32.8559 224.149 32.9944 225.98 34.027C227.873 35.0949 228.045 35.2324 228.73 36.229C229.519 37.3773 230.179 39.4852 230.148 40.7588L230.129 41.5522L227.826 42.2523C219.939 44.6501 212.844 50.7612 207.988 59.3409C203.441 67.3751 202.688 74.6842 206.333 75.4088C209.751 76.0887 217.945 69.0135 224.367 59.8373C226.502 56.7854 229.786 50.5844 230.624 48.0218C231.177 46.3295 231.622 44.4543 231.82 42.9875C231.902 42.3832 236.673 42.1815 239.975 42.6428C243.027 43.0691 243.924 43.3648 246.913 44.9302C249.103 46.0771 249.923 46.5948 250.918 47.4588C253.759 49.9249 255.388 52.6216 256.345 56.4392C256.672 57.7421 256.887 58.8226 256.822 58.8404C256.758 58.8582 256.106 58.1907 255.374 57.3571C253.622 55.3636 252.015 53.9302 250.957 53.4164C250.234 53.0657 250.069 53.0531 249.909 53.3361C249.749 53.6181 249.896 53.8289 250.829 54.6525C253.1 56.658 254.995 59.1339 256.752 62.3919C257.336 63.4749 257.832 64.3712 257.854 64.3836C257.899 64.4092 258.386 62.9566 259.239 60.2473C259.862 58.2688 261.099 55.3708 262.24 53.2139C262.818 52.1212 262.915 51.8084 262.724 51.6462C262.592 51.5348 262.315 51.5082 262.108 51.5867ZM228.214 43.59C220.474 46.2027 214.042 51.7806 209.487 59.8323C207.131 63.9963 205.826 67.7056 205.65 70.7379C205.501 73.2924 206.154 74.1783 207.794 73.6454C211.119 72.5648 217.115 66.8555 222.244 59.8854C224.313 57.0743 227.331 51.7418 228.411 48.9917C229.222 46.9237 230.123 43.661 230.005 43.2206C229.973 43.1022 229.167 43.2682 228.214 43.59ZM203.7 35.4561C201.937 36.3818 198.334 38.9707 196.706 40.4824C190.666 46.0894 185.896 54.6293 185.651 60.2753C185.604 61.3502 185.919 62.5227 186.313 62.7461C187.14 63.2137 189.977 61.5898 192.165 59.397C194.872 56.6841 196.273 54.7149 199.318 49.3471C202.241 44.1936 202.976 42.5884 204.038 39.0394C204.579 37.2318 205.091 34.963 204.972 34.898C204.916 34.8673 204.343 35.1182 203.7 35.4561ZM182.145 25.4728C179.466 27.4558 176.407 30.5237 173.69 33.9533C171.35 36.9063 167.306 43.9526 166.194 47.0158C165.013 50.2673 164.571 52.9199 164.969 54.3561C165.448 56.0853 167.571 55.8359 170.762 53.6757C177.75 48.9446 182.727 38.3119 183.418 26.6371C183.479 25.6032 183.476 24.7271 183.41 24.6903C183.346 24.6535 182.776 25.0057 182.145 25.4728Z" fill="black"/>
</svg>
